<svg width="54" height="57" viewBox="0 0 54 57" fill="none" xmlns="http://www.w3.org/2000/svg">
<path d="M16.5833 11.728H37.2225C38.2545 11.728 39.0988 10.8836 39.0988 9.85166V6.09908C39.0988 3.00321 36.5658 0.470215 33.4699 0.470215H20.3359C17.24 0.470215 14.707 3.00321 14.707 6.09908V9.85166C14.707 10.8836 15.5514 11.728 16.5833 11.728Z" fill="#322C3E"/>
<path d="M26.7188 27.1135V37.8084H36.7569C36.7569 37.8084 37.3198 34.0558 33.8487 30.4908C30.3775 26.9259 26.7188 27.1135 26.7188 27.1135Z" fill="#322C3E"/>
<path d="M47.5401 5.16113H45.6638C45.1009 5.16113 44.7256 5.53639 44.7256 6.09928V9.85186C44.7256 13.9797 41.3483 17.357 37.2205 17.357H16.5813C12.4534 17.357 9.07612 13.9797 9.07612 9.85186V6.09928C9.07612 5.53639 8.70086 5.16113 8.13797 5.16113H6.26168C3.1658 5.16113 0.632812 7.69412 0.632812 10.79V51.1302C0.632812 54.2261 3.1658 56.7591 6.26168 56.7591H47.5401C50.6359 56.7591 53.1689 54.2261 53.1689 51.1302V10.79C53.1689 7.69412 50.6359 5.16113 47.5401 5.16113ZM40.8792 37.3395C40.7854 45.0323 34.4999 51.3179 26.8071 51.224C19.1143 51.1302 12.8287 44.8447 12.9225 37.1519C13.0163 29.4591 19.3019 23.1735 26.9947 23.2673C34.6875 23.2673 40.8792 29.6467 40.8792 37.3395Z" fill="#322C3E"/>
</svg>
