<svg width="53" height="53" viewBox="0 0 53 53" fill="none" xmlns="http://www.w3.org/2000/svg">
<path d="M35.1014 2.77344C35.1014 3.80896 35.9409 4.64844 36.9764 4.64844H45.8092L27.2109 23.2467V17.7734C27.2109 16.7379 26.3714 15.8984 25.3359 15.8984C24.3004 15.8984 23.4609 16.7379 23.4609 17.7734V27.7734C23.4609 28.8089 24.3004 29.6484 25.3359 29.6484H35.3359C36.3714 29.6484 37.2109 28.8089 37.2109 27.7734C37.2109 26.7379 36.3714 25.8984 35.3359 25.8984H29.8627L48.4609 7.30009V16.1328C48.4609 17.1683 49.3004 18.0078 50.3359 18.0078C51.3714 18.0078 52.2109 17.1683 52.2109 16.1328V2.77344C52.2109 1.73791 51.3714 0.898438 50.3359 0.898438H36.9764C35.9409 0.898438 35.1014 1.73791 35.1014 2.77344Z" fill="#443B56"/>
<path d="M44.7149 16.3493C44.8284 19.3477 47.2889 21.7452 50.3119 21.7578C50.3359 23.5729 50.3359 25.5702 50.3359 27.7734C50.3359 39.5584 50.3359 45.4512 46.6747 49.1122C43.0137 52.7734 37.1209 52.7734 25.3359 52.7734C13.5508 52.7734 7.65826 52.7734 3.99711 49.1122C0.335937 45.4512 0.335938 39.5584 0.335938 27.7734C0.335938 15.9883 0.335937 10.0958 3.99711 6.43461C7.65826 2.77344 13.5508 2.77344 25.3359 2.77344C27.5392 2.77344 29.5364 2.77344 31.3517 2.79736C31.3642 5.82054 33.7617 8.28089 36.7602 8.39434L30.2029 14.9515C29.2289 13.2754 27.4142 12.1484 25.3359 12.1484C22.2294 12.1484 19.7109 14.6668 19.7109 17.7734V27.7734C19.7109 30.8799 22.2294 33.3984 25.3359 33.3984H35.3359C38.4424 33.3984 40.9609 30.8799 40.9609 27.7734C40.9609 25.6952 39.8339 23.8804 38.1579 22.9064L44.7149 16.3493Z" fill="#443B56"/>
</svg>
