<svg width="52" height="52" viewBox="0 0 52 52" fill="none" xmlns="http://www.w3.org/2000/svg">
<path d="M26.1855 0.0419922C12.0628 0.0419922 0.613281 11.4915 0.613281 25.6143C0.613281 39.737 12.0628 51.1865 26.1855 51.1865C40.3083 51.1865 51.7578 39.737 51.7578 25.6143C51.7578 11.4915 40.3083 0.0419922 26.1855 0.0419922ZM10.2157 43.3341C9.80952 42.9658 9.41605 42.5837 9.03593 42.1885L17.8038 35.7315V33.996H14.4879L6.86911 39.6091C5.96003 38.3579 5.17469 37.0213 4.52413 35.6181L6.72676 33.996H3.84135C3.43048 32.9041 3.10111 31.7832 2.85597 30.6426H21.1563V48.9438C20.0161 48.6984 18.8955 48.3691 17.8038 47.9585V37.7415L10.2157 43.3341ZM31.2148 17.9758V2.28468C32.3655 2.53273 33.4847 2.86261 34.5673 3.27006V13.4862L42.1546 7.89353C42.562 8.26092 42.9533 8.6445 43.3343 9.03917L34.5673 15.4962V17.2317H37.8814L45.5011 11.6194C46.4103 12.87 47.1957 14.206 47.8461 15.6087L45.6426 17.2317H48.5297C48.9406 18.3236 49.27 19.4444 49.5151 20.585H31.2148V17.9758ZM10.1935 7.91314L17.8021 13.5041L17.8038 3.27006C18.8955 2.85946 20.0161 2.5301 21.1563 2.28468V20.585H2.85597C3.10402 19.4343 3.4339 18.3151 3.84135 17.2317H6.72846L4.52499 15.6087C4.73724 15.1501 4.95886 14.6966 5.19924 14.2542L9.23795 17.2317L14.9014 17.2308L7.01146 11.4191C7.95433 10.1487 9.02017 8.97436 10.1935 7.91314ZM42.1776 43.3154L34.569 37.7236L34.5673 47.9585C33.4847 48.3668 32.3655 48.6958 31.2148 48.9438V30.6426H49.5151C49.2696 31.7831 48.9402 32.904 48.5297 33.996H45.6409L47.8461 35.6198C47.6357 36.0781 47.4109 36.5295 47.1719 36.9735L43.1331 33.996L37.468 33.9968L45.3596 39.8086C44.417 41.0794 43.3511 42.2541 42.1776 43.3154Z" fill="#443B56"/>
</svg>
