<svg width="58" height="57" viewBox="0 0 58 57" fill="none" xmlns="http://www.w3.org/2000/svg">
<path fill-rule="evenodd" clip-rule="evenodd" d="M29.0272 19.8194C29.0272 18.8898 29.3643 18.3648 29.7735 18.0238C30.2472 17.6289 30.9869 17.3568 31.8416 17.3568C32.6963 17.3568 33.436 17.6289 33.9096 18.0238C34.3189 18.3648 34.656 18.8899 34.656 19.8194C34.656 21.3738 35.9161 22.6338 37.4705 22.6338C39.0249 22.6338 40.2849 21.3738 40.2849 19.8194C40.2849 17.2309 39.2149 15.1175 37.5132 13.6995C35.8761 12.3354 33.8013 11.728 31.8416 11.728C29.8819 11.728 27.8071 12.3354 26.1699 13.6995C24.4683 15.1175 23.3983 17.2309 23.3983 19.8194V25.8001H20.5839C19.0295 25.8001 17.7694 27.0602 17.7694 28.6146C17.7694 30.169 19.0295 31.429 20.5839 31.429H23.3983V36.954C23.2131 37.357 22.8534 37.6951 22.5352 37.9911C21.7516 38.7201 20.7078 39.4127 19.8394 39.8968C18.4599 40.6657 18.1292 42.1537 18.3947 43.2282C18.6625 44.3121 19.6733 45.5012 21.2922 45.5012H37.4705C39.0249 45.5012 40.2849 44.2411 40.2849 42.6867C40.2849 41.1323 39.0249 39.8723 37.4705 39.8723H28.2177C28.6523 39.1225 29.0272 38.1634 29.0272 37.0579V31.429H31.8416C33.396 31.429 34.656 30.169 34.656 28.6146C34.656 27.0602 33.396 25.8001 31.8416 25.8001H29.0272V19.8194ZM0.882812 28.6146C0.882812 13.0709 13.4835 0.470215 29.0272 0.470215C44.5707 0.470215 57.1715 13.0709 57.1715 28.6146C57.1715 44.1581 44.5707 56.7589 29.0272 56.7589C13.4835 56.7589 0.882812 44.1581 0.882812 28.6146Z" fill="#443B56"/>
</svg>
