<svg width="67" height="48" viewBox="0 0 67 48" fill="none" xmlns="http://www.w3.org/2000/svg">
<path d="M66.2963 41.4744L60.385 34.0407V2.77784C60.385 1.26555 59.1586 0.0390625 57.6463 0.0390625H9.02945C7.51716 0.0390625 6.29184 1.26555 6.29184 2.77784V34.0406L0.37936 41.4744C0.224785 41.6683 0.140625 41.9082 0.140625 42.1571V45.4473C0.140625 46.6548 1.11943 47.6323 2.32568 47.6323H64.3501C65.5564 47.6323 66.5352 46.6548 66.5352 45.4473V42.1571C66.5352 41.9082 66.451 41.6683 66.2963 41.4744ZM10.155 3.90343H56.5206V30.1765H10.155V3.90343ZM39.5782 45.0338H27.0976V41.7299H39.5782V45.0338Z" fill="#443B56"/>
<path d="M37.9466 14.7988C37.9466 13.5298 37.4287 12.3695 36.5958 11.5388C35.7651 10.707 34.6059 10.1881 33.3357 10.189C32.0667 10.1879 30.9063 10.7069 30.0768 11.5388C29.245 12.3696 28.7259 13.5298 28.7259 14.7988V16.4208H27.2383V22.0462C27.2383 23.6764 28.5601 24.9959 30.19 24.9959H36.4836C38.1125 24.9959 39.4343 23.6764 39.4343 22.0462V16.4208H37.9466V14.7988ZM30.9636 14.7988C30.9636 14.4682 31.0309 14.1586 31.1497 13.875C31.3292 13.4512 31.6317 13.0858 32.0106 12.8301C32.3907 12.5733 32.8414 12.4265 33.3357 12.4255C33.6664 12.4255 33.9758 12.4927 34.2595 12.6116C34.6843 12.7909 35.0487 13.0936 35.3044 13.4737C35.5599 13.8514 35.708 14.3021 35.709 14.7987V16.4207H30.9636V14.7988Z" fill="#443B56"/>
</svg>
