<svg width="92" height="93" viewBox="0 0 92 93" fill="none" xmlns="http://www.w3.org/2000/svg">
<path d="M83.5113 72.7465C68.8654 93.481 40.184 98.4168 19.4495 83.7709C-1.285 69.1251 -6.2208 40.4436 8.42507 19.7091C23.0709 -1.02536 51.7524 -5.96116 72.4869 8.68471C93.2213 23.3306 98.1572 52.012 83.5113 72.7465Z" fill="url(#paint0_linear_874_42)"/>
<path d="M67.2985 44.9209C67.3898 44.3979 67.4472 43.8618 67.4472 43.3139C67.4472 38.1931 63.2955 34.0426 58.1759 34.0426C57.0607 34.0426 55.9924 34.25 54.9985 34.6126C51.9802 29.9326 46.7328 26.8257 40.7498 26.8257C31.3846 26.8257 23.7933 34.417 23.7933 43.7822C23.7933 44.2218 23.8259 44.6535 23.8598 45.0853C19.3272 46.2226 15.9672 50.3118 15.9672 55.1953C15.9672 60.9579 20.6394 65.63 26.402 65.63H65.5324C71.295 65.63 75.9672 60.9579 75.9672 55.1953C75.9672 50.0366 72.2185 45.7622 67.2985 44.9209Z" fill="#FCFBFF"/>
<defs>
<linearGradient id="paint0_linear_874_42" x1="91.9363" y1="0.259644" x2="-10.8447" y2="17.8061" gradientUnits="userSpaceOnUse">
<stop stop-color="#4CFFE7"/>
<stop offset="0.423077" stop-color="#7600C4"/>
<stop offset="0.893283" stop-color="#D300E5"/>
</linearGradient>
</defs>
</svg>
