<svg width="61" height="40" viewBox="0 0 61 40" fill="none" xmlns="http://www.w3.org/2000/svg">
<path d="M52.0188 18.9209C52.1101 18.3979 52.1675 17.8618 52.1675 17.3139C52.1675 12.1931 48.0158 8.04264 42.8962 8.04264C41.781 8.04264 40.7127 8.25003 39.7188 8.61264C36.7005 3.93264 31.4532 0.825684 25.4701 0.825684C16.1049 0.825684 8.51359 8.41699 8.51359 17.7822C8.51359 18.2218 8.5462 18.6535 8.58011 19.0853C4.0475 20.2226 0.6875 24.3118 0.6875 29.1952C0.6875 34.9579 5.35967 39.63 11.1223 39.63H50.2527C56.0153 39.63 60.6875 34.9579 60.6875 29.1952C60.6875 24.0366 56.9388 19.7622 52.0188 18.9209Z" fill="#FCFBFF"/>
</svg>
