<svg width="34" height="25" viewBox="0 0 34 25" fill="none" xmlns="http://www.w3.org/2000/svg">
<path fill-rule="evenodd" clip-rule="evenodd" d="M30.193 0.550293C31.1699 0.550293 32.0374 0.997128 32.5832 1.68827L16.7303 14.3744L1.01866 1.91864C1.54399 1.09803 2.49147 0.550293 3.57304 0.550293H30.193ZM0.582031 21.6685V4.16974L11.8556 13.1071L0.605271 22.026C0.589936 21.9089 0.582031 21.7896 0.582031 21.6685ZM1.61307 23.8243C2.13799 24.2591 2.8233 24.5223 3.57304 24.5223H30.193C30.8374 24.5223 31.4342 24.3279 31.9225 23.9972L19.943 14.4107L17.7888 16.1346C17.1795 16.6222 16.292 16.6241 15.6804 16.1393L13.4937 14.4057L1.61307 23.8243ZM21.5721 13.1071L33.1023 22.334C33.1557 22.1205 33.184 21.8976 33.184 21.6685V3.81478L21.5721 13.1071Z" fill="#4D0072"/>
</svg>
