<svg width="40" height="40" viewBox="0 0 40 40" fill="none" xmlns="http://www.w3.org/2000/svg">
<path d="M12.6507 14.4059C15.0897 21.0596 17.6147 23.7143 24.0383 26.5419L21.2545 30.4515C13.8782 26.9201 10.2042 20.9672 8.47386 16.3217L12.6507 14.4059Z" fill="#4D0072"/>
<path d="M14.6954 5.2201C15.9996 5.215 16.9912 6.30022 16.9023 7.52907C16.7624 9.46286 16.9114 10.8581 17.3124 12.5875C17.5328 13.5374 17.0343 14.5023 16.2423 15.1237C15.1747 15.9613 14.3591 17.0286 13.7109 17.9474C12.8124 19.2208 9.72049 19.1293 9.0367 17.742C7.63141 14.8909 6.67906 9.63815 8.73118 6.08929C9.05352 5.53185 9.70255 5.23962 10.3751 5.23699L14.6954 5.2201Z" fill="#4D0072"/>
<path d="M34.4965 26.3185C34.6587 25.0964 33.6372 24.0362 32.3348 23.9717C30.2852 23.8703 28.8365 23.5629 27.0668 22.9789C26.0948 22.6581 25.0206 23.0094 24.2721 23.6772C23.2632 24.5774 22.0432 25.2137 20.9995 25.711C19.5528 26.4002 19.2771 29.31 20.6532 30.118C23.4813 31.7784 28.8883 33.3029 32.8656 31.8058C33.4904 31.5706 33.8756 30.9972 33.9592 30.367L34.4965 26.3185Z" fill="#4D0072"/>
</svg>
