<svg width="21" height="21" viewBox="0 0 21 21" fill="none" xmlns="http://www.w3.org/2000/svg">
<path d="M10.2666 0.466064C4.808 0.466064 0.382812 4.89125 0.382812 10.3499C0.382812 14.985 3.5741 18.8745 7.8791 19.9427V13.3704H5.84106V10.3499H7.8791V9.04839C7.8791 5.68433 9.40161 4.12506 12.7044 4.12506C13.3306 4.12506 14.4111 4.24801 14.8531 4.37057V7.10839C14.6199 7.08388 14.2146 7.07163 13.7114 7.07163C12.0908 7.07163 11.4646 7.68561 11.4646 9.28165V10.3499H14.693L14.1383 13.3704H11.4646V20.1614C16.3586 19.5703 20.1509 15.4033 20.1509 10.3499C20.1505 4.89125 15.7253 0.466064 10.2666 0.466064Z" fill="#322C3E"/>
</svg>
