<svg width="21" height="20" viewBox="0 0 21 20" fill="none" xmlns="http://www.w3.org/2000/svg">
<path d="M10.5977 0.287109C5.15899 0.287109 0.75 4.6961 0.75 10.1348C0.75 14.7529 3.92961 18.6282 8.21886 19.6925V13.1442H6.18827V10.1348H8.21886V8.83803C8.21886 5.48628 9.73579 3.93271 13.0265 3.93271C13.6504 3.93271 14.727 4.05522 15.1674 4.17733V6.90513C14.935 6.88071 14.5312 6.86849 14.0298 6.86849C12.4151 6.86849 11.7912 7.48023 11.7912 9.07043V10.1348H15.0078L14.4552 13.1442H11.7912V19.9103C16.6674 19.3214 20.4457 15.1697 20.4457 10.1348C20.4453 4.6961 16.0363 0.287109 10.5977 0.287109Z" fill="white"/>
</svg>
