<svg width="21" height="20" viewBox="0 0 21 20" fill="none" xmlns="http://www.w3.org/2000/svg">
<path d="M10.5996 2.0608C13.2313 2.0608 13.5429 2.07235 14.5779 2.11852C15.5398 2.16084 16.0592 2.32243 16.4054 2.4571C16.8633 2.63408 17.1942 2.84954 17.5366 3.19197C17.8829 3.53824 18.0945 3.86528 18.2715 4.32313C18.4061 4.6694 18.5677 5.19266 18.6101 6.15069C18.6562 7.18951 18.6678 7.50116 18.6678 10.129C18.6678 12.7607 18.6562 13.0723 18.6101 14.1073C18.5677 15.0692 18.4061 15.5886 18.2715 15.9349C18.0945 16.3927 17.879 16.7236 17.5366 17.066C17.1903 17.4123 16.8633 17.6239 16.4054 17.8009C16.0592 17.9356 15.5359 18.0972 14.5779 18.1395C13.5391 18.1856 13.2274 18.1972 10.5996 18.1972C7.9679 18.1972 7.65625 18.1856 6.62127 18.1395C5.6594 18.0972 5.13999 17.9356 4.79371 17.8009C4.33586 17.6239 4.00498 17.4085 3.66255 17.066C3.31628 16.7197 3.10467 16.3927 2.92768 15.9349C2.79302 15.5886 2.63142 15.0653 2.5891 14.1073C2.54293 13.0685 2.53139 12.7568 2.53139 10.129C2.53139 7.49731 2.54293 7.18566 2.5891 6.15069C2.63142 5.18881 2.79302 4.6694 2.92768 4.32313C3.10467 3.86528 3.32012 3.53439 3.66255 3.19197C4.00883 2.84569 4.33586 2.63408 4.79371 2.4571C5.13999 2.32243 5.66325 2.16084 6.62127 2.11852C7.65625 2.07235 7.9679 2.0608 10.5996 2.0608ZM10.5996 0.287109C7.92557 0.287109 7.59084 0.298652 6.54048 0.344822C5.49396 0.390992 4.77448 0.560281 4.15118 0.802673C3.50096 1.05661 2.95077 1.39134 2.40442 1.94153C1.85423 2.48787 1.5195 3.03807 1.26556 3.68445C1.02317 4.31159 0.853882 5.02722 0.807712 6.07374C0.761542 7.12795 0.75 7.46268 0.75 10.1367C0.75 12.8107 0.761542 13.1454 0.807712 14.1958C0.853882 15.2423 1.02317 15.9618 1.26556 16.5851C1.5195 17.2353 1.85423 17.7855 2.40442 18.3318C2.95077 18.8782 3.50096 19.2168 4.14734 19.4669C4.77448 19.7092 5.49011 19.8785 6.53663 19.9247C7.58699 19.9709 7.92173 19.9824 10.5957 19.9824C13.2697 19.9824 13.6045 19.9709 14.6548 19.9247C15.7014 19.8785 16.4208 19.7092 17.0441 19.4669C17.6905 19.2168 18.2407 18.8782 18.787 18.3318C19.3334 17.7855 19.672 17.2353 19.9221 16.5889C20.1644 15.9618 20.3337 15.2462 20.3799 14.1996C20.4261 13.1493 20.4376 12.8145 20.4376 10.1405C20.4376 7.46653 20.4261 7.1318 20.3799 6.08143C20.3337 5.03491 20.1644 4.31543 19.9221 3.69214C19.6797 3.03807 19.3449 2.48787 18.7947 1.94153C18.2484 1.39519 17.6982 1.05661 17.0518 0.806521C16.4247 0.564129 15.7091 0.394839 14.6625 0.348669C13.6083 0.298652 13.2736 0.287109 10.5996 0.287109Z" fill="white"/>
<path d="M10.5985 5.07727C7.80524 5.07727 5.53906 7.34344 5.53906 10.1367C5.53906 12.93 7.80524 15.1962 10.5985 15.1962C13.3918 15.1962 15.658 12.93 15.658 10.1367C15.658 7.34344 13.3918 5.07727 10.5985 5.07727ZM10.5985 13.4186C8.78635 13.4186 7.3166 11.9489 7.3166 10.1367C7.3166 8.32455 8.78635 6.85481 10.5985 6.85481C12.4107 6.85481 13.8804 8.32455 13.8804 10.1367C13.8804 11.9489 12.4107 13.4186 10.5985 13.4186Z" fill="white"/>
<path d="M17.042 4.8771C17.042 5.53118 16.5111 6.05829 15.8609 6.05829C15.2068 6.05829 14.6797 5.52733 14.6797 4.8771C14.6797 4.22303 15.2106 3.69592 15.8609 3.69592C16.5111 3.69592 17.042 4.22688 17.042 4.8771Z" fill="white"/>
</svg>
