<svg width="21" height="21" viewBox="0 0 21 21" fill="none" xmlns="http://www.w3.org/2000/svg">
<path d="M10.5879 2.23976C13.2195 2.23976 13.5312 2.2513 14.5662 2.29747C15.528 2.33979 16.0475 2.50139 16.3937 2.63605C16.8516 2.81303 17.1825 3.02849 17.5249 3.37092C17.8712 3.7172 18.0828 4.04423 18.2598 4.50208C18.3944 4.84836 18.556 5.37162 18.5983 6.32964C18.6445 7.36847 18.6561 7.68011 18.6561 10.308C18.6561 12.9396 18.6445 13.2513 18.5983 14.2863C18.556 15.2481 18.3944 15.7675 18.2598 16.1138C18.0828 16.5717 17.8673 16.9026 17.5249 17.245C17.1786 17.5913 16.8516 17.8029 16.3937 17.9799C16.0475 18.1145 15.5242 18.2761 14.5662 18.3184C13.5273 18.3646 13.2157 18.3761 10.5879 18.3761C7.95618 18.3761 7.64453 18.3646 6.60955 18.3184C5.64768 18.2761 5.12827 18.1145 4.782 17.9799C4.32414 17.8029 3.99326 17.5874 3.65083 17.245C3.30456 16.8987 3.09295 16.5717 2.91596 16.1138C2.7813 15.7675 2.61971 15.2443 2.57738 14.2863C2.53121 13.2474 2.51967 12.9358 2.51967 10.308C2.51967 7.67627 2.53121 7.36462 2.57738 6.32964C2.61971 5.36777 2.7813 4.84836 2.91596 4.50208C3.09295 4.04423 3.30841 3.71335 3.65083 3.37092C3.99711 3.02465 4.32414 2.81303 4.782 2.63605C5.12827 2.50139 5.65153 2.33979 6.60955 2.29747C7.64453 2.2513 7.95618 2.23976 10.5879 2.23976ZM10.5879 0.466064C7.91385 0.466064 7.57912 0.477607 6.52876 0.523777C5.48224 0.569947 4.76276 0.739236 4.13946 0.981628C3.48924 1.23556 2.93905 1.57029 2.3927 2.12049C1.84251 2.66683 1.50778 3.21702 1.25385 3.8634C1.01145 4.49054 0.842164 5.20617 0.795994 6.25269C0.749824 7.30691 0.738281 7.64164 0.738281 10.3156C0.738281 12.9897 0.749824 13.3244 0.795994 14.3747C0.842164 15.4213 1.01145 16.1407 1.25385 16.764C1.50778 17.4143 1.84251 17.9645 2.3927 18.5108C2.93905 19.0571 3.48924 19.3957 4.13562 19.6458C4.76276 19.8882 5.47839 20.0575 6.52491 20.1037C7.57527 20.1498 7.91001 20.1614 10.584 20.1614C13.258 20.1614 13.5928 20.1498 14.6431 20.1037C15.6896 20.0575 16.4091 19.8882 17.0324 19.6458C17.6788 19.3957 18.229 19.0571 18.7753 18.5108C19.3217 17.9645 19.6602 17.4143 19.9103 16.7679C20.1527 16.1407 20.322 15.4251 20.3682 14.3786C20.4144 13.3282 20.4259 12.9935 20.4259 10.3195C20.4259 7.64549 20.4144 7.31075 20.3682 6.26039C20.322 5.21387 20.1527 4.49439 19.9103 3.87109C19.6679 3.21702 19.3332 2.66683 18.783 2.12049C18.2367 1.57414 17.6865 1.23556 17.0401 0.985476C16.413 0.743084 15.6973 0.573794 14.6508 0.527624C13.5966 0.477607 13.2619 0.466064 10.5879 0.466064Z" fill="#322C3E"/>
<path d="M10.5868 5.2561C7.79352 5.2561 5.52734 7.52228 5.52734 10.3156C5.52734 13.1088 7.79352 15.375 10.5868 15.375C13.3801 15.375 15.6462 13.1088 15.6462 10.3156C15.6462 7.52228 13.3801 5.2561 10.5868 5.2561ZM10.5868 13.5975C8.77463 13.5975 7.30489 12.1277 7.30489 10.3156C7.30489 8.50339 8.77463 7.03364 10.5868 7.03364C12.399 7.03364 13.8687 8.50339 13.8687 10.3156C13.8687 12.1277 12.399 13.5975 10.5868 13.5975Z" fill="#322C3E"/>
<path d="M17.0303 5.05618C17.0303 5.71026 16.4994 6.23736 15.8491 6.23736C15.1951 6.23736 14.668 5.70641 14.668 5.05618C14.668 4.40211 15.1989 3.875 15.8491 3.875C16.4994 3.875 17.0303 4.40595 17.0303 5.05618Z" fill="#322C3E"/>
</svg>
