<svg width="21" height="21" viewBox="0 0 21 21" fill="none" xmlns="http://www.w3.org/2000/svg">
<path d="M19.2061 0.466064H2.42282C1.61885 0.466064 0.96875 1.10078 0.96875 1.88551V18.7381C0.96875 19.5228 1.61885 20.1614 2.42282 20.1614H19.2061C20.0101 20.1614 20.6641 19.5228 20.6641 18.7419V1.88551C20.6641 1.10078 20.0101 0.466064 19.2061 0.466064ZM6.81195 17.2494H3.88843V7.84796H6.81195V17.2494ZM5.35019 6.567C4.41158 6.567 3.65377 5.80919 3.65377 4.87443C3.65377 3.93967 4.41158 3.18186 5.35019 3.18186C6.28495 3.18186 7.04275 3.93967 7.04275 4.87443C7.04275 5.80534 6.28495 6.567 5.35019 6.567ZM17.7521 17.2494H14.8324V12.6795C14.8324 11.5908 14.8132 10.1868 13.3129 10.1868C11.7935 10.1868 11.5627 11.3754 11.5627 12.6025V17.2494H8.64684V7.84796H11.4473V9.13277H11.4857C11.8743 8.3942 12.8283 7.61331 14.2477 7.61331C17.2058 7.61331 17.7521 9.55976 17.7521 12.0909V17.2494Z" fill="#322C3E"/>
</svg>
