<svg width="21" height="20" viewBox="0 0 21 20" fill="none" xmlns="http://www.w3.org/2000/svg">
<path d="M18.8116 0.287109H2.02829C1.22432 0.287109 0.574219 0.921822 0.574219 1.70656V18.5591C0.574219 19.3439 1.22432 19.9824 2.02829 19.9824H18.8116C19.6156 19.9824 20.2695 19.3439 20.2695 18.563V1.70656C20.2695 0.921822 19.6156 0.287109 18.8116 0.287109ZM6.41742 17.0704H3.4939V7.669H6.41742V17.0704ZM4.95566 6.38804C4.01705 6.38804 3.25924 5.63023 3.25924 4.69547C3.25924 3.76072 4.01705 3.00291 4.95566 3.00291C5.89041 3.00291 6.64822 3.76072 6.64822 4.69547C6.64822 5.62639 5.89041 6.38804 4.95566 6.38804ZM17.3575 17.0704H14.4379V12.5005C14.4379 11.4119 14.4186 10.0078 12.9184 10.0078C11.3989 10.0078 11.1681 11.1965 11.1681 12.4236V17.0704H8.25231V7.669H11.0527V8.95382H11.0912C11.4797 8.21524 12.4337 7.43435 13.8532 7.43435C16.8113 7.43435 17.3575 9.38081 17.3575 11.912V17.0704Z" fill="white"/>
</svg>
