<svg width="97" height="90" viewBox="0 0 97 90" fill="none" xmlns="http://www.w3.org/2000/svg">
<path d="M75.5368 23.8834C77.894 25.0233 78.8505 27.8802 77.6549 30.2096L51.5817 81.0069C49.7374 84.6001 44.6556 84.749 42.6041 81.2699L14.7316 34.0012C14.4015 33.5061 13.3594 31.4582 11.3791 30.7981C10.7749 30.6196 10.3401 30.4403 10.0467 30.2627C8.75134 29.5668 7.87054 28.1992 7.87051 26.6258C7.87055 24.3472 9.71775 22.5 11.9963 22.5C14.1812 22.5 15.969 24.2861 16.1125 26.3576C16.1425 26.6855 16.3281 27.2895 16.801 27.5475C17.0798 27.6995 17.4371 27.682 17.7063 27.5136C18.334 27.1209 18.0212 26.2096 18.0013 26.1537C17.8892 25.8911 17.8272 25.6018 17.8272 25.2982C17.8272 24.0937 18.8037 23.1173 20.0082 23.1172C20.8522 23.1172 21.5838 23.6218 21.9463 24.3207C21.9669 24.3517 21.9871 24.3877 22.006 24.4294C22.2969 25.0705 34.7899 46.6954 42.5227 60.7572C44.5561 64.4548 50.0294 64.4045 51.9247 60.6342L69.3415 25.9867C70.4854 23.711 73.2439 22.7745 75.5368 23.8834ZM17.977 12.6255C20.5069 12.6255 22.5579 14.6765 22.5579 17.2064C22.5578 19.7363 20.5069 21.7871 17.977 21.7871C15.4472 21.7871 13.3964 19.7363 13.3963 17.2064C13.3963 14.6765 15.4471 12.6256 17.977 12.6255ZM7.91218 13.0791C9.75212 13.0791 11.2438 14.5706 11.2439 16.4106C11.2439 18.2505 9.75212 19.7421 7.91218 19.7421C6.07228 19.742 4.5807 18.2505 4.5807 16.4106C4.5807 14.5707 6.07228 13.0791 7.91218 13.0791ZM15.4082 7.66533C16.5582 7.66535 17.4903 8.64424 17.4903 9.85169C17.4903 11.0591 16.5581 12.038 15.4082 12.038C14.2582 12.038 13.3259 11.0591 13.3259 9.85169C13.3259 8.64423 14.2582 7.66533 15.4082 7.66533ZM1.45757 8.08186C2.26251 8.0819 2.91496 8.73449 2.91496 9.53943C2.91491 10.3443 2.26248 10.9968 1.45757 10.9968C0.652625 10.9968 4.51591e-05 10.3444 0 9.53943C0 8.73446 0.652597 8.08186 1.45757 8.08186ZM7.49584 0.794194C9.22077 0.794211 10.6192 2.19257 10.6192 3.91751C10.6191 5.64241 9.22074 7.04062 7.49584 7.04063C5.77092 7.04063 4.37257 5.64242 4.37253 3.91751C4.37253 2.19256 5.7709 0.794194 7.49584 0.794194ZM14.7835 0.169495C15.5885 0.169495 16.2411 0.822092 16.2411 1.62707C16.2411 2.43202 15.5885 3.08464 14.7835 3.08464C13.9785 3.08463 13.326 2.43202 13.3259 1.62707C13.3259 0.822094 13.9785 0.169499 14.7835 0.169495Z" fill="url(#paint0_linear_296_398)"/>
<path d="M50.6625 63.1207C38.5007 77.4962 34.634 64.4763 31.2344 61.9796L45.5412 86.2566C47.0232 89.0211 48.0058 88.0821 48.8956 86.2566L58.6677 67.2151L50.6625 63.1207Z" fill="url(#paint1_linear_296_398)"/>
<path d="M51.3709 22.4434C54.8639 20.1835 58.7326 19.0188 62.9768 18.9492C67.1922 18.7896 71.4684 19.8261 75.8051 22.0586C76.5179 22.4256 77.2749 22.8529 78.0759 23.3404C78.4823 23.5908 78.9018 23.8593 79.3346 24.1458C79.9687 24.5656 80.1736 25.3972 79.8255 26.0733L64.903 55.0601C64.4805 55.881 64.8824 56.8928 65.7804 57.1075C67.4161 57.4984 69.0051 57.6137 70.5473 57.4533C72.583 57.1485 74.4295 56.4082 76.087 55.2324C77.7444 54.0566 79.1084 52.4291 80.1787 50.3499C80.9886 48.7768 81.5421 46.2206 81.8411 44.5463L80.4386 44.6211C79.2723 44.6832 78.4762 43.4593 79.0056 42.4183L85.0895 30.4543C85.6189 29.4132 87.0768 29.3356 87.7137 30.3146L95.0328 41.5656C95.6697 42.5446 95.0079 43.8459 93.8416 43.9079L92.1155 43.9997C91.9387 47.7163 90.9301 51.362 89.0896 54.9371C86.7959 59.3926 83.7973 62.8089 80.0936 65.1858C76.4206 67.5034 72.3424 68.7104 67.8588 68.8071C63.4057 68.8443 58.892 67.6857 54.3177 65.3308C49.981 63.0983 46.5935 60.1895 44.1553 56.6047C41.7173 53.0199 40.359 49.0892 40.0807 44.8126C39.8023 40.5361 40.7335 36.3185 42.8742 32.1601C45.0456 27.9422 47.8778 24.7033 51.3709 22.4434ZM65.3215 30.6969C63.9113 30.2422 62.473 30.0837 61.0064 30.2218C59.0319 30.4078 57.2311 31.0591 55.6043 32.1755C53.9181 33.2613 52.5857 34.7547 51.6071 36.6557C50.7508 38.3191 50.3562 40.1075 50.4234 42.0208C50.4905 43.9341 50.9913 45.8078 51.926 47.6416C52.5864 48.9129 53.4862 50.0679 54.6257 51.1066C55.3119 51.732 56.3786 51.4735 56.8036 50.648L66.0591 32.6691C66.4514 31.907 66.1372 30.96 65.3215 30.6969Z" fill="url(#paint2_linear_296_398)"/>
<defs>
<linearGradient id="paint0_linear_296_398" x1="39.9175" y1="0.169495" x2="39.9175" y2="89.2872" gradientUnits="userSpaceOnUse">
<stop stop-color="#4CFFE7"/>
<stop offset="1" stop-color="#7600C4"/>
</linearGradient>
<linearGradient id="paint1_linear_296_398" x1="44.951" y1="70.3845" x2="45.4136" y2="88.578" gradientUnits="userSpaceOnUse">
<stop stop-color="#D300E5"/>
<stop offset="1" stop-color="#24FFE1"/>
</linearGradient>
<linearGradient id="paint2_linear_296_398" x1="78.5873" y1="19.2774" x2="54.1559" y2="67.8386" gradientUnits="userSpaceOnUse">
<stop stop-color="#EC2FFF"/>
<stop offset="1" stop-color="#23FFE1"/>
</linearGradient>
</defs>
</svg>
