<svg width="73" height="72" viewBox="0 0 73 72" fill="none" xmlns="http://www.w3.org/2000/svg">
<circle cx="36.4446" cy="36.1526" r="35.636" fill="#322C3E"/>
<g clip-path="url(#clip0_773_209)">
<path d="M36.4414 31.4277C37.3639 31.4277 38.2657 31.7007 39.0334 32.2122C39.8011 32.7237 40.4003 33.451 40.7556 34.3023C41.1108 35.1536 41.2063 36.091 41.0299 36.9965C40.8535 37.902 40.4132 38.735 39.7644 39.3908C39.1156 40.0465 38.2873 40.4957 37.3837 40.6817C36.4802 40.8677 35.5418 40.7822 34.6867 40.436C33.8317 40.0898 33.0981 39.4984 32.5785 38.7362C32.0588 37.974 31.7763 37.0751 31.7664 36.1527C31.7631 35.5355 31.8814 34.9237 32.1146 34.3522C32.3477 33.7807 32.6912 33.2607 33.1253 32.8219C33.5594 32.3832 34.0757 32.0342 34.6447 31.795C35.2137 31.5558 35.8242 31.431 36.4414 31.4277ZM24.8664 56.1527C26.4414 57.1027 29.8664 55.6527 33.8664 51.9027C32.5295 50.3834 31.2696 48.7981 30.0914 47.1527C28.075 46.9269 26.0721 46.593 24.0914 46.1527C22.8164 51.5027 23.2914 55.1777 24.8664 56.1527ZM26.6414 41.8027L25.9164 40.5277C25.6338 41.2299 25.3917 41.9477 25.1914 42.6777C25.8664 42.8277 26.6164 42.9527 27.3914 43.0777L26.6414 41.8027ZM42.9914 39.9027L45.0164 36.1527L42.9914 32.4027C42.2414 31.0777 41.4414 29.9027 40.7164 28.7277C39.3664 28.6527 37.9414 28.6527 36.4414 28.6527C34.9414 28.6527 33.5164 28.6527 32.1664 28.6527C31.4414 29.8277 30.6414 31.0027 29.8914 32.3277L27.8664 36.1527L29.8914 39.9027C30.6414 41.2277 31.4414 42.4027 32.1664 43.5777C33.5164 43.5777 34.9414 43.5777 36.4414 43.5777C37.9414 43.5777 39.3664 43.5777 40.7164 43.5777C41.4414 42.4027 42.2414 41.2277 42.9914 39.9027ZM36.4414 23.1027C35.9664 23.6527 35.4664 24.2277 34.9664 24.9027H37.9164C37.4164 24.2277 36.9164 23.6527 36.4414 23.1027ZM36.4414 49.2027C36.9164 48.6527 37.4164 48.0777 37.9164 47.4027H34.9664C35.4664 48.0777 35.9664 48.6527 36.4414 49.2027ZM47.9914 16.1527C46.4414 15.2027 42.9914 16.6527 39.0164 20.4027C40.3533 21.9219 41.6132 23.5073 42.7914 25.1527C44.806 25.3455 46.8089 25.6459 48.7914 26.0527C50.0664 20.7027 49.5914 17.0277 47.9914 16.0527M46.2414 30.4027L46.9664 31.6777C47.249 30.9755 47.4911 30.2576 47.6914 29.5277C47.0164 29.3777 46.2664 29.2527 45.4914 29.1277L46.2414 30.4027ZM49.8664 12.9027C53.5414 15.0027 53.9414 20.5277 52.3664 26.9777C58.7164 28.8527 63.2914 31.9777 63.2914 36.1777C63.2914 40.3777 58.7164 43.5027 52.3664 45.3777C53.9164 51.8277 53.5164 57.3527 49.8664 59.4527C46.2164 61.5527 41.2414 59.1527 36.4414 54.5777C31.6414 59.1527 26.6664 61.5527 22.9914 59.4527C19.3164 57.3527 18.9414 51.9527 20.4914 45.3777C14.1414 43.5027 9.56641 40.3777 9.56641 36.1777C9.56641 31.9777 14.1414 28.8277 20.4914 26.9527C18.9414 20.5027 19.3414 14.9777 22.9914 12.8777C26.6414 10.7777 31.6414 13.1777 36.4414 17.7527C41.2414 13.1777 46.2164 10.7777 49.8664 12.8777M49.1414 36.1527C50.0097 37.9931 50.7775 39.8792 51.4414 41.8027C56.6914 40.2277 59.6414 37.9777 59.6414 36.1527C59.6414 34.3277 56.6164 32.0777 51.4414 30.5027C50.7775 32.4262 50.0097 34.3123 49.1414 36.1527ZM23.7414 36.1527C22.8732 34.3123 22.1054 32.4262 21.4414 30.5027C16.1914 32.0777 13.2414 34.3277 13.2414 36.1527C13.2414 37.9777 16.2664 40.2277 21.4414 41.8027C22.1054 39.8792 22.8732 37.9931 23.7414 36.1527ZM46.2414 41.8027L45.4914 43.0777C46.2664 43.0777 47.0164 42.8277 47.6914 42.6777C47.4911 41.9477 47.249 41.2299 46.9664 40.5277L46.2414 41.8027ZM38.9414 51.9027C42.9164 55.6527 46.4414 57.1027 47.9164 56.1527C49.3914 55.2027 49.9914 51.6027 48.7164 46.1527C46.7339 46.5595 44.731 46.8599 42.7164 47.0527C41.541 48.7322 40.281 50.351 38.9414 51.9027ZM26.6414 30.5027L27.3914 29.2277C26.6164 29.2277 25.8664 29.4777 25.1914 29.6277C25.3917 30.3576 25.6338 31.0755 25.9164 31.7777L26.6414 30.5027ZM33.9414 20.4027C29.8914 16.6527 26.4414 15.2027 24.8664 16.1527C23.2914 17.1027 22.8164 20.7027 24.0914 26.1527C26.0739 25.7459 28.0768 25.4455 30.0914 25.2527C31.2912 23.5714 32.5762 21.9526 33.9414 20.4027Z" fill="white"/>
</g>
<defs>
<clipPath id="clip0_773_209">
<rect width="60" height="60" fill="white" transform="translate(6.44141 6.15259)"/>
</clipPath>
</defs>
</svg>
