<svg width="72" height="73" viewBox="0 0 72 73" fill="none" xmlns="http://www.w3.org/2000/svg">
<circle cx="36.0618" cy="36.6218" r="35.636" fill="#322C3E"/>
<path d="M40.4086 48.3479H31.7148V57.0417H40.4086V48.3479Z" fill="white"/>
<path fill-rule="evenodd" clip-rule="evenodd" d="M51.2763 34.9596L41.8436 25.5486L39.6484 27.7438L51.2763 39.3282V34.9596Z" fill="white"/>
<path fill-rule="evenodd" clip-rule="evenodd" d="M44.0388 32.1124L39.6484 27.7438L41.8436 25.5486L44.0388 27.7438V32.1124Z" fill="white"/>
<path fill-rule="evenodd" clip-rule="evenodd" d="M33.7577 38.0024L31.5625 35.8072L41.8429 25.5486L44.038 27.7438L33.7577 38.0024Z" fill="white"/>
<path fill-rule="evenodd" clip-rule="evenodd" d="M33.759 38.0023L27.543 31.808L29.7599 29.6128L35.9542 35.8071L33.759 38.0023Z" fill="white"/>
<path fill-rule="evenodd" clip-rule="evenodd" d="M31.8898 36.1331L27.543 31.808L29.7599 29.6128L31.8898 31.7428V36.1331Z" fill="white"/>
<path fill-rule="evenodd" clip-rule="evenodd" d="M21.804 41.8058L31.8887 31.7428L29.6935 29.5476L20.8477 38.3718V41.8058H21.804Z" fill="white"/>
<path fill-rule="evenodd" clip-rule="evenodd" d="M57.7969 20.202C57.6993 19.6614 57.4388 19.1635 57.0504 18.7751C56.6619 18.3866 56.1641 18.1262 55.6234 18.0286H16.5016C15.961 18.1262 15.4631 18.3866 15.0746 18.7751C14.6862 19.1635 14.4257 19.6614 14.3281 20.202V48.348C14.4103 48.8951 14.6658 49.4014 15.057 49.7926C15.4482 50.1838 15.9545 50.4393 16.5016 50.5215H55.6234C56.1705 50.4393 56.6768 50.1838 57.068 49.7926C57.4592 49.4014 57.7147 48.8951 57.7969 48.348V20.202ZM53.45 46.1746H18.675V22.2668H53.45V46.1746Z" fill="white"/>
<path fill-rule="evenodd" clip-rule="evenodd" d="M27.3672 59.2152C27.3672 57.7155 28.041 57.0417 29.5406 57.0417H42.5813C44.0809 57.0417 44.7547 57.7155 44.7547 59.2152H27.3672Z" fill="white"/>
</svg>
