<svg width="73" height="73" viewBox="0 0 73 73" fill="none" xmlns="http://www.w3.org/2000/svg">
<circle cx="36.4407" cy="36.6218" r="35.636" fill="#322C3E"/>
<path d="M36.4414 49.6218C32.9897 49.6218 30.1914 52.4201 30.1914 55.8718C30.1914 59.3236 32.9897 62.1218 36.4414 62.1218C39.8932 62.1218 42.6914 59.3236 42.6914 55.8718C42.6914 52.4201 39.8932 49.6218 36.4414 49.6218ZM36.4414 49.6218V39.6218M20.1914 29.6218C23.6432 29.6218 26.4414 26.8236 26.4414 23.3718C26.4414 19.9201 23.6432 17.1218 20.1914 17.1218C16.7396 17.1218 13.9414 19.9201 13.9414 23.3718C13.9414 26.8236 16.7396 29.6218 20.1914 29.6218ZM20.1914 29.6218V31.6218C20.1914 34.4221 20.1914 35.8223 20.7364 36.8918C21.2157 37.8326 21.9806 38.5976 22.9215 39.0768C23.991 39.6218 25.3911 39.6218 28.1914 39.6218H44.6914C47.4917 39.6218 48.8919 39.6218 49.9614 39.0768C50.9022 38.5976 51.6672 37.8326 52.1464 36.8918C52.6914 35.8223 52.6914 34.4221 52.6914 31.6218V29.6218M52.6914 29.6218C56.1432 29.6218 58.9414 26.8236 58.9414 23.3718C58.9414 19.9201 56.1432 17.1218 52.6914 17.1218C49.2397 17.1218 46.4414 19.9201 46.4414 23.3718C46.4414 26.8236 49.2397 29.6218 52.6914 29.6218Z" stroke="white" stroke-width="5" stroke-linecap="round" stroke-linejoin="round"/>
</svg>
