<svg width="73" height="72" viewBox="0 0 73 72" fill="none" xmlns="http://www.w3.org/2000/svg">
<path d="M36.5778 71.9111C27.7287 71.9008 19.1987 68.6041 12.6428 62.6605C6.08677 56.7169 1.9721 48.55 1.09695 39.7442C0.2218 30.9385 2.64855 22.1215 7.90644 15.0038C13.1643 7.88601 20.8785 2.9749 29.5526 1.22313C38.2266 -0.528642 47.2421 1.0038 54.8502 5.52319C62.4583 10.0426 68.1166 17.2267 70.7274 25.682C73.3382 34.1372 72.7154 43.2608 68.9799 51.2829C65.2444 59.305 58.6624 65.6536 50.5108 69.0973C46.1028 70.9622 41.3641 71.9192 36.5778 71.9111Z" fill="#322C3E"/>
<path d="M24.4032 51.3914C23.8763 51.3893 23.3619 51.2315 22.9245 50.9378C22.4871 50.6441 22.1463 50.2276 21.945 49.7407C21.7436 49.2539 21.6907 48.7183 21.7929 48.2015C21.8951 47.6847 22.1479 47.2096 22.5194 46.836L48.0098 21.3456C48.2575 21.0982 48.5516 20.902 48.8752 20.7683C49.1988 20.6346 49.5455 20.5659 49.8956 20.5662C50.2458 20.5664 50.5924 20.6357 50.9158 20.7699C51.2392 20.9042 51.5329 21.1008 51.7803 21.3485C52.0277 21.5963 52.2238 21.8904 52.3576 22.214C52.4913 22.5376 52.56 22.8843 52.5597 23.2344C52.5595 23.5846 52.4902 23.9312 52.356 24.2546C52.2217 24.5779 52.0251 24.8717 51.7773 25.1191L26.287 50.6095C26.04 50.8576 25.7465 51.0544 25.4232 51.1887C25.0999 51.3229 24.7532 51.3918 24.4032 51.3914Z" fill="white"/>
<path d="M26.7255 34.6264C26.1514 34.6268 25.5925 34.4419 25.132 34.0992L18.207 28.9395C17.8747 28.6907 17.605 28.3679 17.4192 27.9967C17.2334 27.6255 17.1367 27.2161 17.1367 26.801C17.1367 26.3859 17.2334 25.9765 17.4192 25.6053C17.605 25.2341 17.8747 24.9113 18.207 24.6625L25.132 19.5028C25.4128 19.2935 25.7321 19.1416 26.0716 19.0558C26.4112 18.9699 26.7643 18.9517 27.1109 19.0024C27.4574 19.053 27.7906 19.1713 28.0914 19.3507C28.3922 19.5301 28.6547 19.767 28.864 20.0478C29.0733 20.3286 29.2252 20.6479 29.311 20.9875C29.3969 21.327 29.415 21.6801 29.3644 22.0267C29.3138 22.3732 29.1955 22.7064 29.0161 23.0072C28.8367 23.308 28.5998 23.5706 28.319 23.7798L24.2612 26.801L28.319 29.8222C28.7687 30.1568 29.1014 30.6247 29.2699 31.1592C29.4384 31.6938 29.4341 32.2679 29.2577 32.7999C29.0812 33.3319 28.7416 33.7948 28.287 34.1227C27.8324 34.4506 27.286 34.6268 26.7255 34.6264Z" fill="white"/>
<path d="M46.4317 53.239C45.8712 53.2394 45.3248 53.0631 44.8702 52.7352C44.4157 52.4073 44.076 51.9445 43.8995 51.4125C43.7231 50.8804 43.7188 50.3064 43.8873 49.7718C44.0558 49.2372 44.3885 48.7693 44.8382 48.4347L48.8901 45.4135L44.8382 42.3924C44.5493 42.1866 44.3043 41.9252 44.1176 41.6236C43.931 41.322 43.8064 40.9861 43.7512 40.6357C43.696 40.2853 43.7113 39.9275 43.7962 39.5831C43.8811 39.2386 44.0338 38.9146 44.2455 38.63C44.4572 38.3454 44.7236 38.1059 45.029 37.9255C45.3344 37.7452 45.6728 37.6276 46.0243 37.5796C46.3757 37.5317 46.7332 37.5544 47.0758 37.6464C47.4184 37.7384 47.7391 37.8978 48.0193 38.1153L54.9502 43.275C55.2825 43.5238 55.5522 43.8466 55.738 44.2178C55.9238 44.589 56.0205 44.9984 56.0205 45.4135C56.0205 45.8286 55.9238 46.238 55.738 46.6092C55.5522 46.9804 55.2825 47.3032 54.9502 47.552L48.0193 52.7117C47.5606 53.0536 47.0039 53.2385 46.4317 53.239Z" fill="white"/>
</svg>
