<svg width="73" height="73" viewBox="0 0 73 73" fill="none" xmlns="http://www.w3.org/2000/svg">
<circle cx="36.5579" cy="36.6218" r="35.636" fill="#322C3E"/>
<g clip-path="url(#clip0_773_211)">
<path d="M35.2143 10.9539C35.9733 10.5111 36.9118 10.5111 37.6707 10.9539L57.8672 22.7351C58.616 23.1719 59.0765 23.9736 59.0765 24.8406V48.4031C59.0765 49.2702 58.616 50.0716 57.8672 50.5084L37.6707 62.2897C36.9118 62.7327 35.9733 62.7327 35.2143 62.2897L30.1652 59.3445C29.0024 58.6663 28.6096 57.1735 29.288 56.0107C29.9663 54.8482 31.4588 54.4552 32.6216 55.1335L36.4425 57.3624L54.2015 47.003V26.2406L36.4425 15.8812L18.6836 26.2406V47.003L22.3132 49.1204C23.4318 49.4792 24.8135 49.5669 25.7873 49.1366C26.2391 48.9371 26.6471 48.6121 26.9701 48.0316C27.3099 47.4206 27.6211 46.4037 27.6211 44.7468V27.6843C27.6211 26.3381 28.7124 25.2468 30.0586 25.2468C31.4048 25.2468 32.4961 26.3381 32.4961 27.6843V44.7468C32.4961 46.99 32.077 48.8795 31.2301 50.4015C30.3664 51.954 29.1312 52.9888 27.7573 53.5959C25.1369 54.7536 22.2431 54.2791 20.4711 53.6424C20.3309 53.592 20.1957 53.529 20.067 53.4539L15.0179 50.5084C14.2691 50.0716 13.8086 49.2702 13.8086 48.4031V24.8406C13.8086 23.9736 14.2691 23.1719 15.0179 22.7351L35.2143 10.9539ZM37.3599 27.7923C38.6496 26.257 40.6639 25.2468 43.3972 25.2468C45.9339 25.2468 47.866 26.1164 49.1735 27.4995C50.0981 28.4779 50.0549 30.0206 49.0763 30.9453C48.098 31.8701 46.5553 31.8266 45.6306 30.8483C45.3459 30.5472 44.7492 30.1218 43.3972 30.1218C41.9595 30.1218 41.367 30.6013 41.0927 30.9279C40.7386 31.3495 40.6211 31.8828 40.6211 32.1531C40.6211 32.4233 40.7386 32.9567 41.0927 33.3783C41.367 33.7049 41.9595 34.1843 43.3972 34.1843C43.6377 34.1843 43.8701 34.2192 44.0898 34.2842C46.1032 34.5744 47.6375 35.4773 48.6895 36.7298C49.8995 38.1702 50.3035 39.8713 50.3035 41.0906C50.3035 42.3099 49.8995 44.011 48.6895 45.4514C47.3999 46.9867 45.3856 47.9968 42.6524 47.9968C40.1157 47.9968 38.1835 47.1271 36.8761 45.7443C35.9513 44.7657 35.9948 43.2229 36.9731 42.2983C37.9514 41.3736 39.4942 41.4171 40.4189 42.3954C40.7035 42.6965 41.3003 43.1218 42.6524 43.1218C44.0901 43.1218 44.6826 42.6424 44.9569 42.3158C45.3108 41.8942 45.4285 41.3608 45.4285 41.0906C45.4285 40.8203 45.3108 40.287 44.9569 39.8654C44.6826 39.5388 44.0901 39.0593 42.6524 39.0593C42.4117 39.0593 42.1792 39.0245 41.9597 38.9595C39.9463 38.6693 38.412 37.7663 37.3599 36.5138C36.15 35.0734 35.7461 33.3724 35.7461 32.1531C35.7461 30.9338 36.15 29.2327 37.3599 27.7923Z" fill="white"/>
</g>
<defs>
<clipPath id="clip0_773_211">
<rect width="52" height="52" fill="white" transform="translate(10.5586 10.6218)"/>
</clipPath>
</defs>
</svg>
