<svg width="72" height="72" viewBox="0 0 72 72" fill="none" xmlns="http://www.w3.org/2000/svg">
<circle cx="36.0618" cy="36.1526" r="35.636" fill="#322C3E"/>
<path d="M36.0625 43.6526C40.2046 43.6526 43.5625 40.2947 43.5625 36.1526C43.5625 32.0105 40.2046 28.6526 36.0625 28.6526C31.9204 28.6526 28.5625 32.0105 28.5625 36.1526C28.5625 40.2947 31.9204 43.6526 36.0625 43.6526Z" stroke="white" stroke-width="5" stroke-linecap="round" stroke-linejoin="round"/>
<path d="M36.0625 21.1526C38.8239 21.1526 41.0625 18.914 41.0625 16.1526C41.0625 13.3912 38.8239 11.1526 36.0625 11.1526C33.3011 11.1526 31.0625 13.3912 31.0625 16.1526C31.0625 18.914 33.3011 21.1526 36.0625 21.1526Z" stroke="white" stroke-width="5" stroke-linecap="round" stroke-linejoin="round"/>
<path d="M56.0625 41.1526C58.8239 41.1526 61.0625 38.914 61.0625 36.1526C61.0625 33.3912 58.8239 31.1526 56.0625 31.1526C53.3011 31.1526 51.0625 33.3912 51.0625 36.1526C51.0625 38.914 53.3011 41.1526 56.0625 41.1526Z" stroke="white" stroke-width="5" stroke-linecap="round" stroke-linejoin="round"/>
<path d="M16.0625 41.1526C18.8239 41.1526 21.0625 38.914 21.0625 36.1526C21.0625 33.3912 18.8239 31.1526 16.0625 31.1526C13.3011 31.1526 11.0625 33.3912 11.0625 36.1526C11.0625 38.914 13.3011 41.1526 16.0625 41.1526Z" stroke="white" stroke-width="5" stroke-linecap="round" stroke-linejoin="round"/>
<path d="M36.0625 61.1526C38.8239 61.1526 41.0625 58.914 41.0625 56.1526C41.0625 53.3912 38.8239 51.1526 36.0625 51.1526C33.3011 51.1526 31.0625 53.3912 31.0625 56.1526C31.0625 58.914 33.3011 61.1526 36.0625 61.1526Z" stroke="white" stroke-width="5" stroke-linecap="round" stroke-linejoin="round"/>
<path d="M36.0625 21.1526V28.6526" stroke="white" stroke-width="5" stroke-linecap="round" stroke-linejoin="round"/>
<path d="M43.5625 36.1526H51.0625" stroke="white" stroke-width="5" stroke-linecap="round" stroke-linejoin="round"/>
<path d="M36.0625 43.6526V51.1526" stroke="white" stroke-width="5" stroke-linecap="round" stroke-linejoin="round"/>
<path d="M28.5625 36.1526H21.0625" stroke="white" stroke-width="5" stroke-linecap="round" stroke-linejoin="round"/>
</svg>
