<svg width="44" height="50" viewBox="0 0 44 50" fill="none" xmlns="http://www.w3.org/2000/svg">
<path d="M22.3076 25.4176C26.0036 25.4176 28.4753 22.4455 29.898 19.9522C31.5486 17.0597 32.6153 13.2719 32.6153 10.3022C32.6153 4.61861 27.9912 -0.00537109 22.3076 -0.00537109C16.624 -0.00537109 12 4.61861 12 10.3022C12 13.2719 13.0665 17.0597 14.7172 19.9522C16.14 22.4455 18.6118 25.4176 22.3076 25.4176ZM25.5821 16.3754V18.4684C25.5821 19.1369 25.2162 19.7203 24.675 20.0326V21.0127C24.675 21.225 24.503 21.397 24.2906 21.397H24.142V22.1442C24.142 22.3566 23.9699 22.5286 23.7577 22.5286H21.1194C20.9071 22.5286 20.735 22.3566 20.735 22.1442V21.397H20.5864C20.3741 21.397 20.2021 21.225 20.2021 21.0127V20.2323C19.3903 20.0556 18.7802 19.3322 18.7802 18.4683V16.3746C17.3237 15.2991 16.4604 13.5967 16.4604 11.7801C16.4604 8.62303 19.0289 6.05475 22.1862 6.05475C25.3379 6.05475 27.9019 8.62314 27.9019 11.7801C27.9019 13.6037 27.0386 15.3062 25.5821 16.3754ZM30.9518 11.7898C30.9518 12.002 30.7798 12.1742 30.5674 12.1742H28.9021C28.6896 12.1742 28.5177 12.002 28.5177 11.7898C28.5177 11.5774 28.6897 11.4054 28.9021 11.4054H30.5674C30.7799 11.4054 30.9518 11.5774 30.9518 11.7898ZM27.8134 8.08854L29.2543 7.26529C29.4386 7.15994 29.6734 7.22416 29.7788 7.4085C29.884 7.59271 29.8201 7.82756 29.6355 7.93279L28.1946 8.75604C28.1346 8.79025 28.069 8.80666 28.0044 8.80666C27.8709 8.80666 27.7412 8.73705 27.6702 8.61295C27.565 8.4285 27.6291 8.19377 27.8134 8.08854ZM25.2109 5.779L26.044 4.33842C26.1504 4.15467 26.3855 4.09174 26.5692 4.19814C26.753 4.30443 26.8158 4.53963 26.7095 4.72326L25.8763 6.16385C25.8052 6.28701 25.6759 6.3558 25.5431 6.3558C25.4779 6.3558 25.4118 6.33916 25.3511 6.30412C25.1674 6.19795 25.1047 5.96275 25.2109 5.779ZM21.8111 3.27178C21.8139 3.05955 21.9894 2.88717 22.2006 2.89268C22.4129 2.89561 22.5825 3.06998 22.5797 3.28221L22.5606 4.6949C22.5578 4.90525 22.3862 5.074 22.1763 5.074C22.1746 5.074 22.1728 5.074 22.1711 5.074C21.9588 5.07107 21.789 4.8967 21.792 4.68447L21.8111 3.27178ZM18.0568 4.19721C18.2412 4.09174 18.476 4.15584 18.5813 4.34029L19.4044 5.78076C19.5097 5.9651 19.4456 6.19982 19.2613 6.30518C19.2012 6.33951 19.1357 6.35592 19.071 6.35592C18.9375 6.35592 18.8078 6.28631 18.7369 6.16221L17.9136 4.72174C17.8085 4.53728 17.8726 4.30256 18.0568 4.19721ZM14.8462 7.40756C14.9518 7.22346 15.1867 7.15994 15.371 7.26588L16.8028 8.089C16.9869 8.19471 17.0502 8.42967 16.9445 8.61377C16.8735 8.7374 16.744 8.80666 16.6109 8.80666C16.5458 8.80666 16.4801 8.79025 16.4196 8.75545L14.9878 7.93232C14.8037 7.8265 14.7403 7.59154 14.8462 7.40756ZM13.6634 11.7898C13.6634 11.5774 13.8355 11.4054 14.0476 11.4054H15.7131C15.9254 11.4054 16.0975 11.5774 16.0975 11.7898C16.0975 12.002 15.9254 12.1742 15.7131 12.1742H14.0476C13.8355 12.174 13.6634 12.002 13.6634 11.7898Z" fill="#6C3BCC"/>
<path d="M22.1875 6.82373C19.4542 6.82373 17.2305 9.04725 17.2305 11.7803C17.2305 13.4117 18.0352 14.9366 19.3832 15.8595C19.4877 15.9311 19.5504 16.0499 19.5504 16.1766V18.4687C19.5504 19.0408 20.0159 19.5061 20.5879 19.5061H21.1671V12.028L18.6116 10.7588C18.4216 10.6643 18.344 10.4337 18.4384 10.2435C18.5328 10.0533 18.7638 9.97596 18.9536 10.0703L21.7224 11.4455C21.853 11.5104 21.9358 11.6438 21.9358 11.7898V19.506H22.4293V11.7898C22.4293 11.6438 22.5119 11.5104 22.6425 11.4455L25.4113 10.0703C25.6018 9.97596 25.8323 10.0534 25.9267 10.2435C26.0211 10.4337 25.9435 10.6643 25.7534 10.7588L23.1979 12.028V19.5061H23.7771C24.3493 19.5061 24.8146 19.0408 24.8146 18.4687V16.1766C24.8146 16.0493 24.8775 15.9304 24.983 15.8588C26.3301 14.9429 27.1345 13.4182 27.1345 11.7804C27.1345 9.04725 24.9154 6.82373 22.1875 6.82373ZM22.1875 10.6774C21.6194 10.6774 21.1572 10.2155 21.1572 9.64748C21.1572 9.08486 21.6194 8.62701 22.1875 8.62701C22.7596 8.62701 23.208 9.07525 23.208 9.64748C23.208 10.2155 22.7501 10.6774 22.1875 10.6774Z" fill="#6C3BCC"/>
<path d="M20.9688 20.2747V20.6284H21.1173H23.7556H23.9042V20.2747H23.7739H20.9688Z" fill="#6C3BCC"/>
<path d="M23.3733 21.3972H21.5039V21.7601H23.3733V21.3972Z" fill="#6C3BCC"/>
<path d="M23.7328 36.5768L25.1411 37.892L30.3623 29.2966L28.4617 27.5625L22.6289 35.528L23.7107 36.5511C23.719 36.559 23.7254 36.5682 23.7328 36.5768Z" fill="#6C3BCC"/>
<path d="M22.1875 9.39575C22.0407 9.39575 21.9258 9.50626 21.9258 9.64747C21.9258 9.79149 22.0432 9.90868 22.1875 9.90868C22.3287 9.90868 22.4392 9.79395 22.4392 9.64747C22.4392 9.50392 22.331 9.39575 22.1875 9.39575Z" fill="#6C3BCC"/>
<path d="M20.9447 38.5615L19.5625 49.7099H24.25L23.148 38.5615H20.9447Z" fill="#6C3BCC"/>
<path d="M31.015 29.7017L25.5524 38.6947C25.4923 38.7937 25.3909 38.8602 25.2763 38.876C25.259 38.8784 25.2414 38.8796 25.2239 38.8796C25.2176 38.8796 25.2115 38.878 25.205 38.8778C25.1946 38.8772 25.1846 38.876 25.1745 38.8749C25.158 38.8726 25.142 38.8695 25.1261 38.8653C25.1164 38.8627 25.1068 38.8602 25.0971 38.8569C25.0804 38.8511 25.0648 38.8437 25.049 38.8354C25.0411 38.8315 25.033 38.8282 25.0257 38.8235C25.003 38.8099 24.9814 38.7944 24.9617 38.7761L23.8633 37.7503L23.8763 38.1223C23.8787 38.1402 23.8802 38.1585 23.8802 38.1771C23.8802 38.1778 23.8802 38.1783 23.8802 38.1789L25.0202 49.7099H36.0272V40.1513C36.0272 39.9389 36.1994 39.7669 36.4115 39.7669C36.6238 39.7669 36.7959 39.939 36.7959 40.1513V49.7384H43.2951V34.529L31.015 29.7017Z" fill="#6C3BCC"/>
<path d="M20.2296 37.9997L18.9772 39.2452C18.9574 39.2649 18.9351 39.2818 18.912 39.2965C18.9041 39.3016 18.8956 39.3052 18.8874 39.3095C18.8715 39.3181 18.8553 39.3261 18.8384 39.3322C18.8281 39.3361 18.8178 39.3389 18.8074 39.3416C18.7912 39.3462 18.775 39.3496 18.7584 39.3518C18.7475 39.3534 18.7365 39.3545 18.7255 39.3551C18.719 39.3553 18.7128 39.357 18.7064 39.357C18.6881 39.357 18.6697 39.3556 18.6513 39.3531C18.6214 39.3486 18.5925 39.3409 18.5649 39.33C18.4823 39.2973 18.4127 39.2366 18.3691 39.157L13.1995 29.7073L0.933594 34.5291V49.7384H7.43363V40.1513C7.43363 39.9389 7.60578 39.7669 7.81801 39.7669C8.03035 39.7669 8.20238 39.939 8.20238 40.1513V49.7099H18.7872L20.2214 38.1418L20.2296 37.9997Z" fill="#6C3BCC"/>
<path d="M23.07 37.0076L22.1197 36.1201L21.0462 37.1879L21.0117 37.793H23.0977L23.07 37.0076Z" fill="#6C3BCC"/>
<path d="M15.758 27.563L13.8555 29.3056L18.7975 38.3394L20.4805 36.6656L21.5656 35.4928L15.758 27.563Z" fill="#6C3BCC"/>
</svg>
