<svg width="60" height="60" viewBox="0 0 60 60" fill="none" xmlns="http://www.w3.org/2000/svg">
<path d="M1.85938 48.4095H27.9165L16.3259 60.0001H42.8395L31.2489 48.4095H57.3065V45.0767H1.85938V48.4095Z" fill="url(#paint0_linear_773_178)"/>
<path d="M2.52462 40.5279L3.11395 40.2573C3.40187 40.6136 3.7365 40.9199 4.10532 41.1721L3.88046 41.7807C3.81209 41.9647 3.82028 42.164 3.90165 42.3421C3.98398 42.5198 4.13083 42.6561 4.3138 42.724L5.08561 43.0085C5.26857 43.0769 5.46742 43.0682 5.64653 42.9873C5.82371 42.9045 5.95949 42.7577 6.02738 42.5747L6.25319 41.9647C6.69664 42.0133 7.14923 41.9969 7.60037 41.9146L7.87144 42.5034C8.04141 42.8708 8.47859 43.0326 8.845 42.8626L9.59033 42.5193C9.95962 42.3489 10.12 41.9136 9.95047 41.5458L9.6794 40.9564C10.0347 40.6685 10.3419 40.3349 10.5937 39.9651L11.2033 40.1909C11.3882 40.2597 11.5865 40.2511 11.7652 40.1692C11.9424 40.0864 12.0776 39.9396 12.146 39.7571L12.4306 38.9862C12.5707 38.6063 12.3762 38.1831 11.9968 38.043L11.3867 37.8182C11.4349 37.3733 11.4195 36.9212 11.3357 36.47L11.9255 36.199C12.2929 36.0295 12.4537 35.5923 12.2842 35.2249L11.9409 34.4791C11.7705 34.1113 11.3338 33.9495 10.9674 34.119L10.3785 34.3905C10.0901 34.0342 9.75595 33.7275 9.38714 33.4757L9.61247 32.8662C9.75114 32.4863 9.55758 32.064 9.17818 31.9239L8.40685 31.6389C8.039 31.5036 7.59989 31.7058 7.4646 32.0732L7.23974 32.6817C6.79534 32.6346 6.34275 32.65 5.89208 32.7333L5.62053 32.1444C5.45153 31.7766 5.01483 31.6153 4.64746 31.7843L3.90117 32.1276C3.5338 32.298 3.37299 32.7352 3.54102 33.1011L3.81306 33.6914C3.45724 33.9793 3.14958 34.313 2.89777 34.6823L2.28918 34.4589C1.92133 34.3221 1.48174 34.5248 1.34596 34.8922L1.06189 35.6635C0.993516 35.848 1.00122 36.0463 1.08307 36.224C1.16589 36.4017 1.31226 36.5379 1.4957 36.6048L2.10477 36.8311C2.05662 37.2751 2.07299 37.7286 2.15533 38.1788L1.56648 38.4499C1.19911 38.6193 1.03829 39.0551 1.20729 39.4229L1.55155 40.1702C1.72151 40.5361 2.15677 40.6979 2.52462 40.5279ZM5.53146 34.6881C5.91664 34.5114 6.32397 34.4213 6.7443 34.4213C7.87433 34.4213 8.91 35.0834 9.38281 36.1089C10.0511 37.563 9.41362 39.2891 7.96004 39.9593C7.57582 40.1355 7.16752 40.2256 6.74719 40.2256C5.61812 40.2256 4.58294 39.5626 4.11013 38.538C3.44087 37.0839 4.07932 35.3578 5.53146 34.6881Z" fill="url(#paint1_linear_773_178)"/>
<path d="M18.2025 32.1454C18.034 31.7775 17.5963 31.6162 17.229 31.7852L16.4832 32.1285C16.1158 32.299 15.955 32.7362 16.123 33.1021L16.395 33.6924C16.0392 33.9803 15.7316 34.314 15.4798 34.6833L14.8716 34.4589C14.5033 34.3221 14.0637 34.5248 13.9284 34.8922L13.6439 35.6635C13.5755 35.848 13.5832 36.0463 13.6655 36.224C13.7484 36.4017 13.8942 36.5379 14.0772 36.6048L14.6872 36.8311C14.6381 37.2751 14.655 37.7286 14.7378 38.1788L14.1489 38.4499C13.7811 38.6193 13.6208 39.0551 13.7893 39.4229L14.1335 40.1702C14.3035 40.5371 14.7392 40.6993 15.1066 40.5284L15.6955 40.2578C15.9839 40.6136 16.318 40.9203 16.6868 41.1721L16.4615 41.7817C16.3931 41.9651 16.4018 42.1645 16.4836 42.3431C16.565 42.5208 16.7119 42.6561 16.8958 42.7249L17.6671 43.009C17.8506 43.0778 18.0494 43.0687 18.228 42.9878C18.4057 42.9055 18.5415 42.7586 18.6089 42.5747L18.8347 41.9651C19.2777 42.0143 19.7317 41.9979 20.1824 41.9146L20.453 42.5044C20.6234 42.8713 21.0596 43.0331 21.427 42.8626L22.1723 42.5193C22.5416 42.3489 22.7019 41.9136 22.5325 41.5458L22.2609 40.9564C22.6172 40.6685 22.9249 40.3349 23.1762 39.9651L23.7857 40.1909C23.9706 40.2597 24.169 40.2511 24.3476 40.1692C24.5253 40.0864 24.6601 39.9396 24.7285 39.7571L25.0126 38.9862C25.1531 38.6063 24.9591 38.1831 24.5792 38.043L23.9697 37.8182C24.0178 37.3733 24.0019 36.9212 23.9182 36.47L24.508 36.199C24.8753 36.0295 25.0362 35.5923 24.8667 35.2249L24.5234 34.4791C24.3534 34.1113 23.9162 33.9495 23.5498 34.119L22.96 34.3905C22.6726 34.0342 22.3384 33.7275 21.9701 33.4757L22.1949 32.8662C22.3341 32.4863 22.1401 32.064 21.7606 31.9239L20.9898 31.6389C20.6219 31.5036 20.1828 31.7058 20.0471 32.0732L19.8222 32.6817C19.3778 32.6346 18.9252 32.65 18.4746 32.7333L18.2025 32.1454ZM19.3268 34.4218C20.4563 34.4218 21.4915 35.0838 21.9648 36.1094C22.6336 37.5639 21.9956 39.29 20.543 39.9598C20.1578 40.1365 19.75 40.226 19.3292 40.226C18.1996 40.226 17.1644 39.563 16.6921 38.5385C16.0229 37.0839 16.6608 35.3578 18.1134 34.6886C18.4981 34.5114 18.906 34.4218 19.3268 34.4218Z" fill="url(#paint2_linear_773_178)"/>
<path d="M8.15521 25.1303L8.76476 25.3561C8.71662 25.8 8.73299 26.2536 8.81532 26.7042L8.22743 26.9748C7.85862 27.1443 7.69877 27.5805 7.86729 27.9479L8.21155 28.6947C8.38103 29.062 8.81676 29.2238 9.18461 29.0534L9.77298 28.7828C10.0614 29.1391 10.396 29.4458 10.7648 29.6976L10.5395 30.3067C10.4711 30.4906 10.4798 30.689 10.5616 30.8681C10.643 31.0452 10.7899 31.1805 10.9733 31.2494L11.7451 31.534C11.9281 31.6023 12.1269 31.5937 12.306 31.5123C12.4832 31.4304 12.619 31.2831 12.6869 31.1001L12.9127 30.4906C13.3561 30.5387 13.8092 30.5224 14.2604 30.44L14.531 31.0294C14.7009 31.3958 15.1381 31.558 15.5045 31.3871L16.2508 31.0448C16.6196 30.8743 16.7799 30.4391 16.61 30.0712L16.3389 29.4824C16.6952 29.194 17.0024 28.8598 17.2537 28.491L17.8633 28.7163C18.0482 28.7852 18.2465 28.776 18.4252 28.6942C18.6023 28.6123 18.7372 28.4655 18.8055 28.2825L19.0901 27.5112C19.2307 27.1323 19.0366 26.709 18.6563 26.5685L18.0472 26.3441C18.0949 25.8987 18.0795 25.4466 17.9957 24.9955L18.5855 24.7249C18.9529 24.5549 19.1137 24.1177 18.9442 23.7504L18.6009 23.0045C18.4309 22.6372 17.9942 22.4754 17.6269 22.6449L17.038 22.916C16.7501 22.5597 16.4159 22.253 16.0471 22.0011L16.2725 21.3921C16.4111 21.0122 16.2176 20.5894 15.8382 20.4493L15.0668 20.1643C14.699 20.0295 14.2604 20.2312 14.1241 20.5991L13.8997 21.2072C13.4553 21.1605 13.0032 21.1759 12.5521 21.2592L12.281 20.6703C12.1115 20.3025 11.6743 20.1412 11.307 20.3107L10.5612 20.654C10.1938 20.8239 10.033 21.2611 10.2015 21.628L10.4731 22.2168C10.1172 22.5053 9.80957 22.8394 9.55728 23.2082L8.94917 22.9834C8.58132 22.8466 8.14173 23.0493 8.00595 23.4172L7.72188 24.1885C7.65351 24.3724 7.6617 24.5708 7.74307 24.7494C7.82588 24.9276 7.97177 25.0634 8.15521 25.1303ZM12.1919 23.2135C12.5762 23.0363 12.984 22.9473 13.4048 22.9473C14.5343 22.9473 15.57 23.6093 16.0428 24.6348C16.7116 26.0889 16.0741 27.8155 14.6215 28.4852C14.2363 28.6619 13.8285 28.7515 13.4077 28.7515C12.2786 28.7515 11.2434 28.089 10.7706 27.0639C10.1009 25.6103 10.7393 23.8828 12.1919 23.2135Z" fill="url(#paint3_linear_773_178)"/>
<path d="M50.1002 8.9661C52.5762 8.9661 54.5833 6.95897 54.5833 4.48305C54.5833 2.00713 52.5762 0 50.1002 0C47.6243 0 45.6172 2.00713 45.6172 4.48305C45.6172 6.95897 47.6243 8.9661 50.1002 8.9661Z" fill="url(#paint4_linear_773_178)"/>
<path d="M45.4459 24.4996C45.5475 24.4996 45.6476 24.4876 45.7478 24.4693C45.7449 24.5126 45.741 24.5559 45.741 24.5998L45.7425 41.2652C45.7425 42.4 46.6621 43.3216 47.7989 43.3216C48.9342 43.3216 49.8553 42.401 49.8553 41.2652L49.8548 26.9629C49.9366 26.9667 50.0175 26.973 50.1003 26.973C50.1162 26.973 50.1307 26.971 50.148 26.9706V41.2647C50.148 42.4 51.0681 43.3211 52.2044 43.3211C53.3402 43.3211 54.2608 42.4005 54.2608 41.2647V24.6378C54.293 24.5762 54.3229 24.5126 54.3513 24.4486C54.4823 24.4794 54.6156 24.4991 54.7471 24.4991C55.3196 24.4991 55.8805 24.217 56.2137 23.7004C57.1911 22.1784 58.8527 19.4046 58.9725 17.9269C59.1752 15.4459 54.9286 11.1896 53.0807 10.0572C53.0142 10.0153 52.9439 9.98783 52.8732 9.95702C52.3681 9.61998 51.7975 9.36817 51.2154 9.22517L50.1003 10.3494L49.0165 9.21313C49.0127 9.2141 49.0093 9.2141 49.0064 9.21506C48.4229 9.35469 47.8504 9.60506 47.3419 9.94643C47.2649 9.97917 47.1879 10.0114 47.1132 10.0572C45.2663 11.1896 41.0191 15.4454 41.2219 17.926C41.3417 19.4046 43.0024 22.1784 43.9812 23.7004C44.3134 24.2179 44.8739 24.4996 45.4459 24.4996ZM54.6879 16.4223C55.0841 16.9587 55.374 17.431 55.4804 17.7339C55.3841 18.0666 55.0889 18.6954 54.6879 19.4407V16.4223ZM50.0893 10.517H50.11L51.1904 17.743L50.11 19.2221H50.0893L49.0078 17.743L50.0893 10.517ZM45.5109 16.4151V19.4532C45.1016 18.6949 44.8016 18.0589 44.7126 17.7392C44.8161 17.4354 45.1088 16.9582 45.5109 16.4151Z" fill="url(#paint5_linear_773_178)"/>
<defs>
<linearGradient id="paint0_linear_773_178" x1="57.3065" y1="45.0767" x2="11.8146" y2="73.9316" gradientUnits="userSpaceOnUse">
<stop offset="0.365385" stop-color="#7600C4"/>
</linearGradient>
<linearGradient id="paint1_linear_773_178" x1="12.476" y1="31.5967" x2="-0.336067" y2="33.7844" gradientUnits="userSpaceOnUse">
<stop offset="0.365385" stop-color="#7600C4"/>
</linearGradient>
<linearGradient id="paint2_linear_773_178" x1="25.0583" y1="31.5967" x2="12.2459" y2="33.7844" gradientUnits="userSpaceOnUse">
<stop offset="0.365385" stop-color="#7600C4"/>
</linearGradient>
<linearGradient id="paint3_linear_773_178" x1="19.1359" y1="20.1223" x2="6.32412" y2="22.31" gradientUnits="userSpaceOnUse">
<stop offset="0.365385" stop-color="#7600C4"/>
</linearGradient>
<linearGradient id="paint4_linear_773_178" x1="54.5833" y1="0" x2="44.5596" y2="1.71122" gradientUnits="userSpaceOnUse">
<stop offset="0.365385" stop-color="#7600C4"/>
</linearGradient>
<linearGradient id="paint5_linear_773_178" x1="58.9795" y1="9.21313" x2="38.7008" y2="11.0162" gradientUnits="userSpaceOnUse">
<stop offset="0.365385" stop-color="#7600C4"/>
</linearGradient>
</defs>
</svg>
