<svg width="47" height="61" viewBox="0 0 47 61" fill="none" xmlns="http://www.w3.org/2000/svg">
<path d="M11.7695 42.2927C11.9445 45.2673 13.3439 47.8904 15.2681 49.8154C15.6179 49.4647 15.9678 49.289 16.4926 48.94C15.6179 47.0165 15.2681 44.7425 15.0931 42.2927H11.7695Z" fill="#6C3BCC"/>
<path d="M16.668 42.2927C16.8429 44.3918 17.1928 46.4902 17.8925 48.2387C18.7671 47.8904 19.6417 47.5398 20.5164 47.3656C20.3414 45.4398 20.1665 43.5164 20.1665 42.2927C20.3414 42.2927 16.668 42.2927 16.668 42.2927Z" fill="#6C3BCC"/>
<path d="M11.7695 40.1945H15.0931C15.2681 37.7448 15.6179 35.4707 16.4926 33.5473C16.1427 33.3716 15.6179 33.0225 15.2681 32.6719C13.3439 34.5969 12.1194 37.22 11.7695 40.1945Z" fill="#6C3BCC"/>
<path d="M16.4961 50.8649C17.0209 51.214 17.5457 51.5647 18.0704 51.9145C17.7206 51.3897 17.3707 51.0407 17.1958 50.5159C17.0209 50.5159 16.8459 50.6892 16.4961 50.8649Z" fill="#6C3BCC"/>
<path d="M26.8164 47.3666C27.6903 47.5446 28.5641 47.8914 29.4395 48.242C30.1392 46.4927 30.4891 44.5678 30.6625 42.2937H26.9898C26.9913 43.5182 26.9913 45.4432 26.8164 47.3666Z" fill="#6C3BCC"/>
<path d="M29.4395 34.2478C28.5641 34.5969 27.6903 34.9475 26.8164 35.1217C26.9913 37.0466 27.1655 38.9701 27.1655 40.1945H30.6632C30.4868 38.0946 30.1377 35.9955 29.4395 34.2478Z" fill="#6C3BCC"/>
<path d="M28.7385 32.8475C27.8639 31.2731 26.8143 30.2244 25.5898 29.5247C25.9397 30.5742 26.2896 32.147 26.4645 33.548C27.3391 33.5472 28.0396 33.1966 28.7385 32.8475Z" fill="#6C3BCC"/>
<path d="M18.0704 30.7493C17.5457 31.0983 17.0209 31.449 16.4961 31.7981C16.671 31.9738 16.8459 32.1471 17.1958 32.3228C17.5457 31.6223 17.8955 31.0983 18.0704 30.7493Z" fill="#6C3BCC"/>
<path d="M18.5938 49.6405C19.4684 51.2148 20.5179 52.2636 21.7424 52.9641C21.3926 51.9145 21.0427 50.3433 20.8678 48.9431C19.9932 49.1157 19.2935 49.2891 18.5938 49.6405Z" fill="#6C3BCC"/>
<path d="M25.0645 33.897C24.7146 31.4488 24.1898 29.8752 23.84 29.3489H23.665H23.4901C23.1403 30.0486 22.6155 31.6229 22.2656 33.897C22.7904 33.897 23.1403 33.897 23.665 33.897C24.1898 33.897 24.5397 33.897 25.0645 33.897Z" fill="#6C3BCC"/>
<path d="M17.8925 34.2478C17.1928 35.9955 16.668 37.9205 16.668 40.1945H20.3414C20.3414 38.9701 20.5164 37.22 20.6913 35.1217C19.6417 34.946 18.7671 34.7726 17.8925 34.2478Z" fill="#6C3BCC"/>
<path d="M18.5938 32.8475C19.2935 33.1966 19.9932 33.3723 20.6929 33.5472C20.8678 31.9706 21.2177 30.5735 21.5675 29.5239C20.5179 30.2229 19.4684 31.4489 18.5938 32.8475Z" fill="#6C3BCC"/>
<path d="M30.8398 48.94C31.1889 49.1157 31.7153 49.4647 32.0636 49.8154C33.9877 47.8904 35.3872 45.2673 35.5613 42.2927H32.2377C32.0636 44.7425 31.5388 47.0165 30.8398 48.94Z" fill="#6C3BCC"/>
<path d="M29.2656 51.7389C29.7904 51.3898 30.316 51.0392 30.8408 50.6893C30.665 50.5128 30.4917 50.3403 30.141 50.1646C29.7904 50.865 29.4421 51.3898 29.2656 51.7389Z" fill="#6C3BCC"/>
<path d="M30.8398 33.5473C31.7153 35.4707 32.0636 37.7448 32.24 40.1945H35.5637C35.3872 37.22 33.9878 34.5969 32.0659 32.6719C31.5388 33.0209 31.1889 33.3724 30.8398 33.5473Z" fill="#6C3BCC"/>
<path d="M34.3369 25.3249L46.4068 0.660156H0.925781L12.9958 25.3241C7.74794 28.8219 4.42432 34.5968 4.42432 41.4174C4.42432 52.0879 12.9958 60.6602 23.6663 60.6602C34.3369 60.6602 42.9099 52.0879 42.9099 41.4174C42.9099 34.5968 39.4097 28.6493 34.3369 25.3249ZM31.1882 8.35695L32.4127 5.90875L33.6356 8.35695L36.4344 8.70758L34.3353 10.631L34.8601 13.4298L32.4119 12.2069L29.9621 13.6063L30.4869 10.8075L28.3878 8.88329L31.1882 8.35695ZM29.264 15.8804L32.0628 16.2302L30.1386 18.3294L30.6634 21.1282L28.2144 19.9037L25.7639 21.1282L26.2886 18.3294L24.1895 16.4052L26.9884 16.0553L28.2129 13.6063L29.264 15.8804ZM22.4418 8.35695L23.6663 5.90875L24.89 8.35851L27.6889 8.70758L25.5905 10.6326L26.1168 13.4314L23.6663 12.2069L21.2173 13.6063L21.7421 10.8075L19.643 8.88329L22.4418 8.35695ZM20.5176 15.8804L23.3165 16.2302L21.2173 18.3294L21.7421 21.1282L19.2931 19.9037L16.8441 21.1282L17.3689 18.3294L15.2698 16.4052L18.0686 16.0553L19.2931 13.6063L20.5176 15.8804ZM12.296 13.6063L12.8208 10.8075L10.7217 8.88329L13.5205 8.53344L14.745 6.08446L15.9695 8.53344L18.7683 8.88329L16.6692 10.8075L17.194 13.6063L14.92 12.2069L12.296 13.6063ZM23.6663 55.2382C15.9695 55.2382 9.67214 48.9424 9.67214 41.244C9.67214 33.5488 15.9695 27.2506 23.6663 27.2506C31.3615 27.2506 37.6605 33.548 37.6605 41.244C37.6605 48.9416 31.3623 55.2382 23.6663 55.2382Z" fill="#6C3BCC"/>
<path d="M30.1371 32.147C30.3128 31.9706 30.6619 31.798 30.8368 31.6223C30.3121 31.2732 29.7865 30.9226 29.2617 30.5735C29.439 31.0983 29.7873 31.6223 30.1371 32.147Z" fill="#6C3BCC"/>
<path d="M25.5898 52.9642C26.8143 52.4395 27.8639 51.215 28.7385 49.6406C28.0388 49.29 27.3391 49.1158 26.6394 48.9409C26.288 50.3403 26.1162 51.9147 25.5898 52.9642Z" fill="#6C3BCC"/>
<path d="M22.2656 48.5911C22.6155 51.0408 23.1403 52.6144 23.4901 53.1392H23.665H23.84C24.1898 52.4395 24.7146 50.8651 25.0645 48.5911C24.5397 48.5911 24.1898 48.5911 23.665 48.5911C23.1403 48.5911 22.7904 48.5911 22.2656 48.5911Z" fill="#6C3BCC"/>
<path d="M22.0929 47.0165C22.6177 47.0165 23.1425 46.84 23.6672 46.84C24.192 46.84 24.7168 46.84 25.2424 47.0165C25.4189 45.6163 25.4189 44.0412 25.5914 42.2927H21.918C21.918 44.0428 21.918 45.6163 22.0929 47.0165Z" fill="#6C3BCC"/>
<path d="M23.6672 35.6464C23.1425 35.6464 22.6177 35.6464 22.0929 35.4707C21.918 36.8709 21.918 38.4452 21.918 40.1945H25.4157C25.4157 38.4452 25.24 36.8709 25.0667 35.4707C24.7168 35.4707 24.192 35.6464 23.6672 35.6464Z" fill="#6C3BCC"/>
</svg>
