<svg width="58" height="57" viewBox="0 0 58 57" fill="none" xmlns="http://www.w3.org/2000/svg">
<path d="M29.1328 49.2356C35.428 49.2356 40.5726 44.125 40.5726 37.7959C40.5726 31.4668 35.4619 26.3561 29.1328 26.3561C22.8037 26.3561 17.7269 31.5006 17.7269 37.8297C17.7267 44.125 22.8374 49.2356 29.1328 49.2356ZM28.5009 38.7662C26.4025 38.033 25.0939 36.9724 25.0939 35.0885C25.0939 33.351 26.2446 31.986 28.3545 31.5572V29.6732H29.9338V31.467C31.2424 31.467 32.1901 31.7377 32.8898 32.1101L32.2467 34.3664C31.7276 34.152 30.8815 33.7911 29.7196 33.7911C28.5577 33.7911 27.9258 34.3664 27.9258 34.9418C27.9258 35.7316 28.6591 36.0362 30.2387 36.6793C32.3936 37.469 33.3976 38.5632 33.3976 40.357C33.3976 42.1508 32.3032 43.516 29.9906 44.0348V45.8286H28.4112V44.0911C27.0461 44.0911 25.6697 43.7302 25.0042 43.3578L25.5795 41.045C26.3128 41.4059 27.4635 41.8348 28.682 41.8348C29.9906 41.8348 30.6337 41.2594 30.6337 40.4696C30.6337 39.6798 30.0128 39.3528 28.5009 38.7662ZM0.886719 15.6229C0.886719 18.691 3.04569 21.2984 5.82151 22.2571V52.4096H0.886719V56.4471H57.4126V52.4096H52.4778V22.2522C55.3691 21.3673 57.345 18.7987 57.4126 15.6229V13.8285H0.886719V15.6229ZM15.0832 15.4762C15.0832 16.9291 16.5984 22.5352 22.1999 22.5352C27.0649 22.5352 29.1988 18.1354 29.1988 15.4762C29.1988 17.9553 30.8609 22.5301 36.2564 22.5301C41.1313 22.5301 43.2914 17.8198 43.2914 15.4762C43.2914 18.7119 45.473 21.4016 48.4402 22.24V52.4096H9.85907V22.2611C12.8653 21.4473 15.0832 18.7397 15.0832 15.4762ZM57.4126 12.2583H0.886719L8.0646 5.08042V0.594238H50.459V5.08042H50.4213L57.4126 12.2583Z" fill="#FCFBFF"/>
</svg>
