<svg width="56" height="56" viewBox="0 0 56 56" fill="none" xmlns="http://www.w3.org/2000/svg">
<path d="M27.6316 0.716499C26.6504 0.729057 25.6693 1.36178 25.6693 2.67874V18.4993C15.4898 19.1426 11.9336 24.5013 11.9336 28.1879H43.3295C43.3295 24.5013 39.7733 19.1426 29.5938 18.4993V2.67874C29.5938 1.31161 28.6127 0.703957 27.6316 0.716499ZM31.556 0.716499V12.49H47.254L39.405 6.60323L47.254 0.716499H31.556ZM4.08464 32.1124V36.0369H8.00913V51.7348H4.08464L0.160156 55.6593H55.103L51.1785 51.7348H47.254V36.0369H51.1785V32.1124H4.08464ZM15.8581 36.0369H19.7826V51.7348H15.8581V36.0369ZM23.7071 36.0369H31.556V51.7348H23.7071V36.0369ZM35.4805 36.0369H39.405V51.7348H35.4805V36.0369Z" fill="#FCFBFF"/>
</svg>
