<svg width="53" height="57" viewBox="0 0 53 57" fill="none" xmlns="http://www.w3.org/2000/svg">
<path d="M45.4824 31.3598V39.9665C45.4824 44.2367 43.786 48.3321 40.7665 51.3516C37.747 54.3711 33.6517 56.0674 29.3815 56.0674C25.1113 56.0674 21.016 54.3711 17.9965 51.3516C14.977 48.3321 13.2806 44.2367 13.2806 39.9665V38.0735C9.70302 37.5159 6.4424 35.6983 4.08676 32.9485C1.73113 30.1987 0.435526 26.6977 0.433594 23.0769V10.9156C0.434115 9.73931 0.72787 8.58175 1.28829 7.54759C1.8487 6.51343 2.65809 5.63529 3.64325 4.99263C3.71327 3.86439 4.15779 2.79178 4.90637 1.94475C5.65495 1.09773 6.66479 0.524734 7.77586 0.316561C8.88694 0.108389 10.0357 0.276945 11.0402 0.795519C12.0446 1.31409 12.8473 2.15303 13.321 3.1794C13.7947 4.20576 13.9123 5.36086 13.6553 6.46165C13.3983 7.56245 12.7812 8.546 11.902 9.25644C11.0227 9.96688 9.9315 10.3636 8.80127 10.3837C7.67104 10.4038 6.56642 10.0462 5.66243 9.36752C5.2964 9.80035 5.09524 10.3487 5.09454 10.9156V23.0727C5.09454 25.8619 6.20253 28.5368 8.17477 30.509C10.147 32.4813 12.8219 33.5893 15.6111 33.5893C18.4003 33.5893 21.0752 32.4813 23.0474 30.509C25.0197 28.5368 26.1277 25.8619 26.1277 23.0727V10.9156C26.1278 10.4111 25.9688 9.91943 25.6734 9.51054C24.7355 10.1423 23.6137 10.4432 22.4856 10.3656C21.3575 10.288 20.2875 9.83632 19.445 9.0821C18.6024 8.32787 18.0356 7.31417 17.8341 6.20148C17.6326 5.08879 17.8079 3.94068 18.3325 2.93889C18.857 1.9371 19.7006 1.13889 20.7299 0.670594C21.7592 0.202302 22.9152 0.0906925 24.0151 0.353435C25.1149 0.616178 26.0957 1.23826 26.8022 2.1212C27.5086 3.00415 27.9004 4.09751 27.9155 5.2282C28.806 5.88523 29.5299 6.74212 30.0289 7.72992C30.528 8.71773 30.7882 9.80886 30.7886 10.9156V23.0727C30.7867 26.6935 29.4911 30.1945 27.1354 32.9443C24.7798 35.6941 21.5192 37.5117 17.9416 38.0693V39.9623C17.9416 42.9958 19.1466 45.9051 21.2916 48.0501C23.4366 50.1951 26.3459 51.4001 29.3794 51.4001C32.4129 51.4001 35.3221 50.1951 37.4672 48.0501C39.6122 45.9051 40.8172 42.9958 40.8172 39.9623V31.3598C38.7031 30.7943 36.8667 29.4794 35.6503 27.6602C34.4339 25.841 33.9204 23.6416 34.2056 21.4718C34.4907 19.302 35.5551 17.31 37.2003 15.8669C38.8455 14.4237 40.9593 13.628 43.1477 13.628C45.3361 13.628 47.4499 14.4237 49.0951 15.8669C50.7403 17.31 51.8046 19.302 52.0898 21.4718C52.375 23.6416 51.8615 25.841 50.6451 27.6602C49.4286 29.4794 47.5923 30.7943 45.4782 31.3598H45.4824ZM47.5015 22.652C47.5015 21.7909 47.2462 20.9492 46.7678 20.2332C46.2894 19.5172 45.6094 18.9591 44.8138 18.6296C44.0183 18.3001 43.1429 18.2138 42.2983 18.3818C41.4537 18.5498 40.6779 18.9645 40.069 19.5734C39.4601 20.1823 39.0455 20.9581 38.8775 21.8026C38.7095 22.6472 38.7957 23.5226 39.1252 24.3182C39.4548 25.1138 40.0128 25.7937 40.7288 26.2721C41.4448 26.7506 42.2866 27.0059 43.1477 27.0059C44.3024 27.0048 45.4097 26.5459 46.2266 25.7297C47.0435 24.9136 47.5035 23.8068 47.5058 22.652H47.5015Z" fill="#FCFBFF"/>
</svg>
