<svg width="58" height="49" viewBox="0 0 58 49" fill="none" xmlns="http://www.w3.org/2000/svg">
<path d="M55.4015 46.7294C55.8675 46.7294 56.3083 46.543 56.6017 46.2214C56.8951 45.8999 57.0096 45.4782 56.9133 45.0735L55.9403 40.9841C56.4944 40.508 56.8428 39.8433 56.8428 39.1042C56.8428 38.3262 56.4526 37.6361 55.847 37.1567V22.9557L51.9464 25.0993V37.1567C51.3408 37.6361 50.9505 38.3262 50.9505 39.1042C50.9505 39.8434 51.299 40.5081 51.8531 40.9841L50.88 45.0735C50.7837 45.4783 50.8983 45.9 51.1915 46.2214C51.485 46.5429 51.9258 46.7294 52.3917 46.7294H55.4015ZM56.7236 14.6688L31.3486 0.718771C30.6055 0.312235 29.7677 0.108154 28.93 0.108154C28.0922 0.108154 27.2539 0.312064 26.5152 0.718771L1.13988 14.6688C0.462306 15.0412 0.0507812 15.6988 0.0507812 16.4066C0.0507812 17.1145 0.462306 17.7723 1.13988 18.1453L26.5151 32.0954C27.2538 32.5024 28.0921 32.7061 28.9298 32.7061C29.7676 32.7061 30.6055 32.5021 31.3485 32.0954L56.7236 18.1453C57.4012 17.7725 57.8127 17.1145 57.8127 16.4066C57.8127 15.6988 57.4012 15.0409 56.7236 14.6688ZM28.9298 36.1699C27.3492 36.1699 25.8065 35.78 24.4618 35.0408L9.66026 26.9029V40.9156C9.66026 45.0629 18.2916 48.4201 28.9298 48.4201C39.5719 48.4201 48.2025 45.0628 48.2025 40.9156V26.9029L33.4016 35.0408C32.0569 35.78 30.5105 36.1699 28.9298 36.1699Z" fill="#FCFBFF"/>
</svg>
