<svg width="57" height="57" viewBox="0 0 57 57" fill="none" xmlns="http://www.w3.org/2000/svg">
<path d="M49.389 42.1913C49.389 46.0487 46.2648 49.173 42.4074 49.173C38.5501 49.173 35.4258 46.0487 35.4258 42.1913C35.4258 38.334 38.5501 35.2097 42.4074 35.2097C46.2648 35.2097 49.389 38.334 49.389 42.1913Z" fill="#FCFBFF"/>
<path d="M41.3621 56.1545C38.5694 56.1545 35.7768 55.4564 33.3332 53.711L11.6901 42.1913C9.94473 40.795 8.5484 40.0968 7.15208 38.7005C2.9631 34.5115 0.519531 28.5771 0.519531 22.6427C0.519531 16.7083 2.9631 11.123 7.15208 6.93406C11.3411 2.74508 16.9264 0.301514 22.8607 0.301514C28.7951 0.301514 34.3804 2.74508 38.9185 6.93406C40.3148 8.33039 41.013 9.37763 42.4093 11.123L54.6272 33.4642C58.118 39.3986 57.0707 46.7293 52.1836 51.6165C49.0419 54.7582 45.551 56.1545 41.3621 56.1545ZM22.8607 3.79233C17.9736 3.79233 13.0865 5.88682 9.59565 9.37763C6.10483 12.8684 4.01035 17.7556 4.01035 22.6427C4.01035 27.8789 6.10483 32.417 9.59565 35.9078C10.6429 36.9551 11.6901 37.6532 13.4355 38.7005L35.4277 50.5692C37.5222 51.9656 39.6166 52.3146 41.7111 52.3146C44.8529 52.3146 47.6455 51.2674 49.74 48.8238C53.5799 44.9839 54.2781 39.3986 51.4854 34.8606L39.2676 12.5194C38.2203 11.123 37.5222 10.0758 36.4749 9.02855C32.635 5.88682 28.097 3.79233 22.8607 3.79233Z" fill="#FCFBFF"/>
<path d="M38.9173 24.7373V21.2465L34.0302 19.5011C33.6811 18.8029 33.6811 18.4538 33.332 17.7556L35.4265 13.2176L32.9829 10.774L28.4449 12.8685C27.7467 12.5194 27.3976 12.5194 26.6995 12.1703L24.9541 7.2832H21.4633L19.7178 12.1703C19.0197 12.5194 18.6706 12.5194 17.9724 12.8685L13.4344 10.774L10.9908 13.2176L13.0853 17.7556C12.7362 18.4538 12.7362 18.8029 12.3871 19.5011L7.5 21.2465V24.7373L12.3871 26.4827C12.7362 27.1808 12.7362 27.5299 13.0853 28.2281L10.9908 32.7661L13.4344 35.2097L17.9724 33.1152C18.6706 33.4643 19.0197 33.8134 19.7178 33.8134L21.4633 38.7005H24.9541L26.6995 33.8134C27.3976 33.4643 27.7467 33.4643 28.4449 33.1152L32.9829 35.2097L35.4265 32.7661L33.332 28.2281C33.6811 27.5299 34.0302 27.1808 34.0302 26.4827L38.9173 24.7373ZM23.2087 28.2281C20.416 28.2281 17.9724 25.7845 17.9724 22.9919C17.9724 20.1992 20.416 17.7556 23.2087 17.7556C26.0013 17.7556 28.4449 20.1992 28.4449 22.9919C28.4449 25.7845 26.0013 28.2281 23.2087 28.2281Z" fill="#FCFBFF"/>
</svg>
