<svg width="33" height="23" viewBox="0 0 33 23" fill="none" xmlns="http://www.w3.org/2000/svg">
<path d="M1.73509 12.3132C0.563386 11.2474 0.47747 9.43364 1.5432 8.26193C2.60892 7.09023 4.42272 7.00431 5.59443 8.07004L15.902 17.4453C17.0737 18.511 17.1596 20.3248 16.0939 21.4965C15.0282 22.6682 13.2144 22.7541 12.0427 21.6884L1.73509 12.3132Z" fill="url(#paint0_linear_401_127)"/>
<path d="M16.54 21.3211C15.4515 22.4717 13.6363 22.5221 12.4857 21.4336C11.3351 20.3451 11.2848 18.53 12.3733 17.3794L27.1969 1.70975C28.2853 0.559147 30.1005 0.50879 31.2511 1.59727C32.4017 2.68575 32.452 4.50088 31.3636 5.65149L16.54 21.3211Z" fill="url(#paint1_linear_401_127)"/>
<defs>
<linearGradient id="paint0_linear_401_127" x1="32.1481" y1="0.812744" x2="-1.8402" y2="9.22599" gradientUnits="userSpaceOnUse">
<stop stop-color="#4CFFE7"/>
<stop offset="0.423077" stop-color="#7600C4"/>
<stop offset="0.893283" stop-color="#D300E5"/>
</linearGradient>
<linearGradient id="paint1_linear_401_127" x1="32.1481" y1="0.812744" x2="-1.8402" y2="9.22599" gradientUnits="userSpaceOnUse">
<stop stop-color="#4CFFE7"/>
<stop offset="0.423077" stop-color="#7600C4"/>
<stop offset="0.893283" stop-color="#D300E5"/>
</linearGradient>
</defs>
</svg>
