<svg width="266" height="66" viewBox="0 0 266 66" fill="none" xmlns="http://www.w3.org/2000/svg">
<path d="M249.908 46.3871C249.666 46.3871 249.47 46.1908 249.47 45.9486V23.3828C249.47 23.1405 249.666 22.9442 249.908 22.9442H264.929C265.171 22.9442 265.367 23.1405 265.367 23.3828V25.3482C265.367 25.5905 265.171 25.7868 264.929 25.7868H253.207C252.965 25.7868 252.768 25.9832 252.768 26.2254V32.4724C252.768 32.7146 252.965 32.911 253.207 32.911H261.63C261.872 32.911 262.068 33.1073 262.068 33.3495V35.315C262.068 35.5572 261.872 35.7536 261.63 35.7536H253.207C252.965 35.7536 252.768 35.9499 252.768 36.1922V43.1059C252.768 43.3481 252.965 43.5445 253.207 43.5445H264.929C265.171 43.5445 265.367 43.7409 265.367 43.9831V45.9486C265.367 46.1908 265.171 46.3871 264.929 46.3871H249.908Z" fill="#44277C"/>
<path d="M203.639 46.3871C203.397 46.3871 203.2 46.1908 203.2 45.9486V23.3828C203.2 23.1405 203.397 22.9442 203.639 22.9442H209.587C211.459 22.9442 213.167 23.1431 214.711 23.5408C216.279 23.9151 217.636 24.5468 218.782 25.4359C219.929 26.3249 220.818 27.5298 221.449 29.0506C222.081 30.5479 222.397 32.4079 222.397 34.6306C222.397 36.8766 222.081 38.76 221.449 40.2807C220.818 41.7781 219.929 42.983 218.782 43.8954C217.636 44.7845 216.279 45.4279 214.711 45.8256C213.167 46.2 211.459 46.3871 209.587 46.3871H203.639ZM206.499 43.1761C206.499 43.4183 206.696 43.6147 206.938 43.6147H209.517C210.734 43.6147 211.904 43.5211 213.027 43.3339C214.173 43.1234 215.191 42.7256 216.08 42.1407C216.992 41.5324 217.706 40.6317 218.221 39.4385C218.759 38.2219 219.028 36.6192 219.028 34.6306C219.028 32.6419 218.759 31.0627 218.221 29.8928C217.706 28.6996 216.992 27.8106 216.08 27.2257C215.191 26.6174 214.173 26.2197 213.027 26.0325C211.904 25.8219 210.734 25.7166 209.517 25.7166H206.938C206.696 25.7166 206.499 25.913 206.499 26.1552V43.1761Z" fill="#44277C"/>
<path d="M184.013 46.3871C183.771 46.3871 183.575 46.1908 183.575 45.9486V23.3828C183.575 23.1405 183.771 22.9442 184.013 22.9442H199.034C199.276 22.9442 199.472 23.1405 199.472 23.3828V25.3482C199.472 25.5905 199.276 25.7868 199.034 25.7868H187.312C187.07 25.7868 186.874 25.9832 186.874 26.2254V32.4724C186.874 32.7146 187.07 32.911 187.312 32.911H195.735C195.977 32.911 196.174 33.1073 196.174 33.3495V35.315C196.174 35.5572 195.977 35.7536 195.735 35.7536H187.312C187.07 35.7536 186.874 35.9499 186.874 36.1922V43.1059C186.874 43.3481 187.07 43.5445 187.312 43.5445H199.034C199.276 43.5445 199.472 43.7409 199.472 43.9831V45.9486C199.472 46.1908 199.276 46.3871 199.034 46.3871H184.013Z" fill="#44277C"/>
<path d="M147.103 46.3871C146.861 46.3871 146.665 46.1908 146.665 45.9486V23.3828C146.665 23.1405 146.861 22.9442 147.103 22.9442H151.821C152.011 22.9442 152.179 23.0663 152.238 23.2468L157.969 40.8266C158.101 41.2301 158.672 41.2301 158.803 40.8266L164.534 23.2468C164.593 23.0663 164.762 22.9442 164.951 22.9442H169.669C169.911 22.9442 170.108 23.1405 170.108 23.3828V45.9486C170.108 46.1908 169.911 46.3871 169.669 46.3871H167.248C167.005 46.3871 166.809 46.1908 166.809 45.9486V29.0462C166.809 28.5499 166.114 28.4354 165.955 28.9055L160.137 46.0892C160.076 46.2673 159.909 46.3871 159.721 46.3871H157.086C156.898 46.3871 156.731 46.2676 156.671 46.0899L150.817 28.8919C150.658 28.4224 149.964 28.5373 149.964 29.0332V45.9486C149.964 46.1908 149.767 46.3871 149.525 46.3871H147.103Z" fill="#44277C"/>
<path d="M132.738 46.3871C130.57 46.3871 128.696 45.8903 127.115 44.8965C125.534 43.8802 124.303 42.4913 123.422 40.7297C122.564 38.9455 122.135 36.9128 122.135 34.6318C122.135 32.3507 122.564 30.3407 123.422 28.6017C124.303 26.8401 125.534 25.4624 127.115 24.4687C128.696 23.4523 130.57 22.9442 132.738 22.9442C134.929 22.9442 136.815 23.4523 138.396 24.4687C139.977 25.4624 141.196 26.8401 142.054 28.6017C142.935 30.3407 143.376 32.3507 143.376 34.6318C143.376 36.9128 142.935 38.9455 142.054 40.7297C141.196 42.4913 139.977 43.8802 138.396 44.8965C136.815 45.8903 134.929 46.3871 132.738 46.3871ZM132.738 43.7108C134.116 43.7108 135.358 43.3608 136.465 42.6607C137.594 41.9605 138.486 40.9442 139.141 39.6117C139.796 38.2566 140.123 36.5967 140.123 34.6318C140.123 32.6895 139.796 31.0521 139.141 29.7196C138.486 28.3645 137.594 27.3482 136.465 26.6707C135.358 25.9705 134.116 25.6205 132.738 25.6205C131.383 25.6205 130.141 25.9705 129.012 26.6707C127.905 27.3482 127.024 28.3645 126.369 29.7196C125.714 31.0521 125.387 32.6895 125.387 34.6318C125.387 36.5967 125.714 38.2566 126.369 39.6117C127.024 40.9442 127.905 41.9605 129.012 42.6607C130.141 43.3608 131.383 43.7108 132.738 43.7108Z" fill="#44277C"/>
<path d="M111.29 46.3871C111.048 46.3871 110.852 46.1908 110.852 45.9486V37.4173C110.852 37.339 110.831 37.2621 110.791 37.1947L102.784 23.6054C102.611 23.313 102.822 22.9442 103.162 22.9442H105.755C105.912 22.9442 106.057 23.0284 106.135 23.1648L112.12 33.6134C112.288 33.9079 112.713 33.9074 112.881 33.6125L118.832 23.1657C118.91 23.0287 119.056 22.9442 119.213 22.9442H121.807C122.146 22.9442 122.357 23.3124 122.186 23.6047L114.211 37.1949C114.172 37.2622 114.151 37.3389 114.151 37.4169V45.9486C114.151 46.1908 113.954 46.3871 113.712 46.3871H111.29Z" fill="#44277C"/>
<path d="M88.5825 46.3871C88.3951 46.3871 88.2284 46.2681 88.1676 46.0908L80.4317 23.525C80.3341 23.2403 80.5457 22.9442 80.8466 22.9442H83.5285C83.7186 22.9442 83.887 23.0666 83.9457 23.2474L89.7833 41.2442C89.9144 41.6482 90.4858 41.6487 90.6175 41.2449L96.4878 23.2468C96.5467 23.0663 96.715 22.9442 96.9048 22.9442H99.5864C99.8875 22.9442 100.099 23.2408 100.001 23.5255L92.2314 46.0913C92.1704 46.2683 92.0039 46.3871 91.8167 46.3871H88.5825Z" fill="#44277C"/>
<path d="M235.917 46.3871C233.749 46.3871 231.897 45.8903 230.361 44.8965C228.848 43.8802 227.685 42.4913 226.872 40.7297C226.081 38.9681 225.686 36.9354 225.686 34.6318C225.686 32.283 226.115 30.2391 226.974 28.5C227.854 26.7384 229.085 25.372 230.666 24.4009C232.247 23.4298 234.099 22.9442 236.222 22.9442C238.119 22.9442 239.824 23.3846 241.337 24.2654C242.736 25.0676 243.826 26.1884 244.606 27.6277C244.73 27.8559 244.615 28.1362 244.371 28.2245L242.385 28.9421C242.175 29.0183 241.942 28.9225 241.831 28.7282C241.338 27.87 240.643 27.1615 239.745 26.6029C238.752 25.948 237.521 25.6205 236.053 25.6205C234.72 25.6205 233.512 25.9593 232.428 26.6368C231.366 27.3143 230.519 28.3307 229.887 29.6857C229.255 31.0182 228.938 32.6669 228.938 34.6318C228.938 36.5289 229.232 38.155 229.819 39.5101C230.429 40.8652 231.265 41.9041 232.326 42.6268C233.41 43.3495 234.652 43.7108 236.053 43.7108C236.798 43.7108 237.566 43.6205 238.356 43.4398C239.147 43.2592 239.869 42.9543 240.524 42.5252C241.179 42.0735 242.049 41.2204 242.455 40.4526C242.854 39.6989 242.995 38.7619 243 37.6172C243 37.5741 243.007 37.531 243.019 37.4898L243.073 37.3117C243.161 37.0222 242.936 36.7328 242.634 36.7463L236.579 37.0166C236.329 37.0278 236.12 36.8284 236.12 36.5785V34.7316C236.12 34.4894 236.317 34.293 236.559 34.293H245.151C245.445 34.293 245.656 34.577 245.57 34.8587L243.082 43.0787C243.071 43.116 243.055 43.1518 243.034 43.1847C242.314 44.3108 241.33 45.1299 240.084 45.6418C238.842 46.1387 237.453 46.3871 235.917 46.3871Z" fill="#44277C"/>
<path d="M233.639 34.7235C233.639 34.4813 233.835 34.2849 234.078 34.2849H245.303C245.545 34.2849 245.742 34.4813 245.742 34.7235V36.5924C245.742 36.8346 245.545 37.031 245.303 37.031H234.078C233.835 37.031 233.639 36.8346 233.639 36.5924V34.7235Z" fill="#6C3BCC"/>
<path d="M243.434 46.3871C243.192 46.3871 242.995 46.1908 242.995 45.9486V34.7235C242.995 34.4813 243.192 34.2849 243.434 34.2849H245.303C245.545 34.2849 245.741 34.4813 245.741 34.7235V45.9486C245.741 46.1908 245.545 46.3871 245.303 46.3871H243.434Z" fill="#6C3BCC"/>
<path d="M58.1234 18.723C58.6918 18.9979 58.9225 19.6868 58.6342 20.2486L36.006 64.3342C35.6015 65.1221 34.4872 65.1548 34.0373 64.3919L10.9165 25.1816C10.6719 24.8146 9.89965 23.2971 8.43218 22.808C7.98449 22.6757 7.66232 22.5428 7.44486 22.4112C6.48498 21.8955 5.83228 20.8821 5.83226 19.7162C5.83229 18.0277 7.20111 16.6588 8.88961 16.6588C10.5086 16.6588 11.8335 17.9824 11.9398 19.5174C11.9664 19.8087 12.1587 20.3937 12.6846 20.4791C12.7533 20.4902 12.8245 20.4854 12.892 20.4684C13.6526 20.2771 13.3562 19.4133 13.3394 19.3663C13.2564 19.1717 13.2104 18.9574 13.2104 18.7324C13.2104 17.8398 13.934 17.1162 14.8266 17.1162C15.452 17.1162 15.9942 17.4901 16.2628 18.008C16.278 18.031 16.293 18.0577 16.307 18.0886C16.559 18.6439 29.1647 40.4437 34.0511 49.7059C34.4828 50.5244 35.6656 50.5113 36.0812 49.6845L52.4147 17.192C52.6905 16.6432 53.3557 16.4174 53.9087 16.6848L58.1234 18.723ZM13.3214 9.34157C15.1962 9.34157 16.716 10.8614 16.716 12.7361C16.716 14.6108 15.1962 16.1306 13.3214 16.1306C11.4468 16.1305 9.92706 14.6108 9.92703 12.7361C9.92703 10.8614 11.4467 9.34161 13.3214 9.34157ZM5.86314 9.67768C7.22658 9.67768 8.33199 10.783 8.332 12.1464C8.332 13.5098 7.22658 14.6151 5.86314 14.6151C4.49972 14.6151 3.39442 13.5098 3.39442 12.1464C3.39442 10.783 4.49973 9.67772 5.86314 9.67768ZM11.4179 5.66595C12.27 5.66596 12.9608 6.39134 12.9608 7.28609C12.9608 8.18084 12.27 8.90623 11.4179 8.90624C10.5657 8.90624 9.87488 8.18085 9.87488 7.28609C9.87488 6.39133 10.5657 5.66595 11.4179 5.66595ZM1.0801 5.9746C1.67658 5.97464 2.16006 6.45822 2.16006 7.0547C2.16003 7.65116 1.67656 8.13463 1.0801 8.13466C0.483613 8.13466 3.34641e-05 7.65118 0 7.0547C0 6.4582 0.483592 5.9746 1.0801 5.9746ZM5.55462 0.574247C6.83284 0.57426 7.86908 1.61048 7.86908 2.88871C7.86905 4.1669 6.83282 5.20301 5.55462 5.20303C4.27641 5.20303 3.24019 4.16691 3.24016 2.88871C3.24016 1.61048 4.27639 0.574247 5.55462 0.574247ZM10.955 0.111328C11.5515 0.111328 12.0351 0.59492 12.0351 1.19143C12.0351 1.78792 11.5515 2.27153 10.955 2.27153C10.3585 2.27152 9.87489 1.78792 9.87488 1.19143C9.87488 0.594922 10.3585 0.111331 10.955 0.111328Z" fill="url(#paint0_linear_238_133)"/>
<path d="M37.5391 46.7597C28.5269 57.4124 25.6616 47.7643 23.1424 45.9142L33.7441 63.9041C34.8423 65.9526 35.5705 65.2568 36.2298 63.9041L43.4712 49.7939L37.5391 46.7597Z" fill="url(#paint1_linear_238_133)"/>
<path d="M38.0639 16.6168C40.6524 14.9422 43.5191 14.0791 46.6642 14.0275C49.788 13.9093 52.9567 14.6773 56.1703 16.3317C56.6986 16.6036 57.2595 16.9203 57.8531 17.2815C58.1542 17.467 58.4651 17.666 58.7858 17.8783C59.2557 18.1894 59.4075 18.8057 59.1496 19.3067L48.0916 40.7866C47.7785 41.3949 48.0764 42.1447 48.7418 42.3038C49.9539 42.5935 51.1314 42.6789 52.2742 42.56C53.7827 42.3342 55.151 41.7857 56.3792 40.9143C57.6074 40.043 58.6182 38.837 59.4113 37.2963C60.0114 36.1306 60.4216 34.2363 60.6432 32.9957L59.6039 33.0511C58.7397 33.0971 58.1497 32.1902 58.542 31.4187L63.0504 22.5531C63.4427 21.7816 64.523 21.7241 64.995 22.4496L70.4186 30.7869C70.8906 31.5124 70.4002 32.4766 69.5359 32.5226L68.2568 32.5906C68.1258 35.3447 67.3784 38.0463 66.0145 40.6955C64.3149 43.9972 62.0928 46.5287 59.3483 48.2901C56.6265 50.0074 53.6044 50.9019 50.2819 50.9735C46.9821 51.0011 43.6373 50.1425 40.2476 48.3975C37.034 46.7432 34.5238 44.5877 32.717 41.9312C30.9104 39.2748 29.9039 36.362 29.6976 33.193C29.4913 30.0239 30.1813 26.8987 31.7677 23.8171C33.3767 20.6916 35.4755 18.2914 38.0639 16.6168ZM48.4017 22.7329C47.3568 22.3959 46.2909 22.2785 45.2041 22.3808C43.741 22.5186 42.4065 23.0012 41.201 23.8285C39.9515 24.6332 38.9642 25.7398 38.239 27.1485C37.6044 28.3811 37.3121 29.7064 37.3618 31.1242C37.4116 32.542 37.7827 33.9304 38.4753 35.2894C38.9647 36.2314 39.6315 37.0873 40.4759 37.857C40.9844 38.3205 41.7748 38.1289 42.0897 37.5172L48.9483 24.1943C49.239 23.6296 49.0062 22.9278 48.4017 22.7329Z" fill="url(#paint2_linear_238_133)"/>
<defs>
<linearGradient id="paint0_linear_238_133" x1="132.684" y1="0.111328" x2="132.684" y2="65.1927" gradientUnits="userSpaceOnUse">
<stop stop-color="#4CFFE7"/>
<stop offset="1" stop-color="#7600C4"/>
</linearGradient>
<linearGradient id="paint1_linear_238_133" x1="132.684" y1="21.1371" x2="132.983" y2="66.6772" gradientUnits="userSpaceOnUse">
<stop stop-color="#D300E5"/>
<stop offset="1" stop-color="#24FFE1"/>
</linearGradient>
<linearGradient id="paint2_linear_238_133" x1="58.2317" y1="14.2707" x2="40.1274" y2="50.2559" gradientUnits="userSpaceOnUse">
<stop stop-color="#EC2FFF"/>
<stop offset="1" stop-color="#23FFE1"/>
</linearGradient>
</defs>
</svg>
