<svg width="20" height="21" viewBox="0 0 20 21" fill="none" xmlns="http://www.w3.org/2000/svg">
<path d="M0.378906 20.1614L1.76332 15.1038C0.909038 13.6234 0.460149 11.9451 0.46097 10.2243C0.463432 4.84417 4.84154 0.466064 10.2208 0.466064C12.8313 0.466885 15.2817 1.48366 17.1248 3.32845C18.9672 5.17324 19.9815 7.62531 19.9807 10.2333C19.9782 15.6142 15.6001 19.9923 10.2208 19.9923C8.58775 19.9915 6.97848 19.582 5.55303 18.804L0.378906 20.1614ZM5.79265 17.0372C7.16804 17.8537 8.48106 18.3428 10.2175 18.3437C14.6884 18.3437 18.3304 14.705 18.3328 10.2317C18.3345 5.74933 14.7097 2.11555 10.2241 2.11391C5.74998 2.11391 2.11045 5.75261 2.10881 10.2251C2.10799 12.051 2.64305 13.4182 3.54165 14.8486L2.72183 17.8423L5.79265 17.0372ZM15.1373 12.5532C15.0765 12.4515 14.914 12.3908 14.6695 12.2685C14.4258 12.1462 13.2268 11.5562 13.0028 11.4749C12.7796 11.3937 12.6171 11.3526 12.4538 11.5972C12.2913 11.8409 11.8235 12.3908 11.6816 12.5532C11.5396 12.7157 11.3968 12.7362 11.1531 12.614C10.9093 12.4917 10.1232 12.2348 9.19174 11.4035C8.46711 10.7569 7.97719 9.95838 7.83522 9.71383C7.69325 9.4701 7.82045 9.33798 7.94191 9.21653C8.05187 9.10738 8.18564 8.93177 8.30791 8.78897C8.43183 8.64783 8.47204 8.54607 8.5541 8.38276C8.63535 8.22027 8.59513 8.07748 8.53359 7.95521C8.47204 7.83375 7.98458 6.63316 7.78188 6.14488C7.58329 5.66973 7.38223 5.73374 7.23287 5.72635L6.76511 5.71815C6.60262 5.71815 6.33838 5.77887 6.11517 6.02342C5.89195 6.26797 5.2617 6.85719 5.2617 8.05779C5.2617 9.25838 6.13568 10.4179 6.25714 10.5804C6.37941 10.7429 7.97637 13.2065 10.4227 14.2626C11.0045 14.5137 11.4592 14.6639 11.8129 14.7764C12.3971 14.9618 12.9289 14.9356 13.3491 14.8732C13.8177 14.8034 14.7918 14.2831 14.9953 13.7136C15.1988 13.1433 15.1988 12.655 15.1373 12.5532Z" fill="#322C3E"/>
</svg>
