<svg width="20" height="20" viewBox="0 0 20 20" fill="none" xmlns="http://www.w3.org/2000/svg">
<path d="M0.398438 19.9824L1.78285 14.9248C0.92857 13.4444 0.479681 11.7662 0.480501 10.0453C0.482963 4.66521 4.86107 0.287109 10.2403 0.287109C12.8508 0.28793 15.3012 1.3047 17.1444 3.14949C18.9867 4.99429 20.001 7.44636 20.0002 10.0543C19.9977 15.4353 15.6196 19.8134 10.2403 19.8134C8.60728 19.8125 6.99801 19.4031 5.57256 18.6251L0.398438 19.9824ZM5.81219 16.8583C7.18758 17.6748 8.5006 18.1639 10.2371 18.1647C14.7079 18.1647 18.3499 14.526 18.3524 10.0527C18.354 5.57038 14.7292 1.93659 10.2436 1.93495C5.76951 1.93495 2.12998 5.57366 2.12834 10.0461C2.12752 11.8721 2.66258 13.2392 3.56118 14.6696L2.74136 17.6633L5.81219 16.8583ZM15.1568 12.3743C15.0961 12.2725 14.9336 12.2118 14.689 12.0895C14.4453 11.9672 13.2463 11.3772 13.0223 11.296C12.7991 11.2147 12.6366 11.1737 12.4733 11.4182C12.3108 11.662 11.8431 12.2118 11.7011 12.3743C11.5591 12.5368 11.4163 12.5573 11.1726 12.435C10.9289 12.3127 10.1427 12.0559 9.21127 11.2246C8.48664 10.5779 7.99672 9.77943 7.85475 9.53488C7.71278 9.29115 7.83998 9.15903 7.96144 9.03757C8.0714 8.92843 8.20517 8.75281 8.32744 8.61002C8.45136 8.46887 8.49157 8.36711 8.57363 8.2038C8.65488 8.04132 8.61467 7.89853 8.55312 7.77625C8.49157 7.6548 8.00411 6.4542 7.80141 5.96592C7.60282 5.49078 7.40176 5.55478 7.25241 5.5474L6.78464 5.53919C6.62216 5.53919 6.35791 5.59992 6.1347 5.84447C5.91148 6.08902 5.28123 6.67824 5.28123 7.87883C5.28123 9.07942 6.15521 10.239 6.27667 10.4015C6.39894 10.564 7.9959 13.0275 10.4422 14.0837C11.0241 14.3348 11.4787 14.485 11.8324 14.5974C12.4167 14.7829 12.9485 14.7566 13.3686 14.6942C13.8372 14.6245 14.8113 14.1042 15.0148 13.5347C15.2183 12.9643 15.2183 12.476 15.1568 12.3743Z" fill="white"/>
</svg>
