<svg width="53" height="57" viewBox="0 0 53 57" fill="none" xmlns="http://www.w3.org/2000/svg">
<path d="M15.9505 11.6078H36.5897C37.6217 11.6078 38.466 10.7635 38.466 9.73155V5.97897C38.466 2.88309 35.933 0.350098 32.8371 0.350098H19.7031C16.6072 0.350098 14.0742 2.88309 14.0742 5.97897V9.73155C14.0742 10.7635 14.9185 11.6078 15.9505 11.6078Z" fill="white"/>
<path d="M26.0859 26.9934V37.6883H36.1241C36.1241 37.6883 36.687 33.9357 33.2158 30.3707C29.7447 26.8058 26.0859 26.9934 26.0859 26.9934Z" fill="white"/>
<path d="M46.9073 5.04089H45.031C44.4681 5.04089 44.0928 5.41615 44.0928 5.97904V9.73162C44.0928 13.8595 40.7155 17.2368 36.5877 17.2368H15.9485C11.8206 17.2368 8.44331 13.8595 8.44331 9.73162V5.97904C8.44331 5.41615 8.06805 5.04089 7.50516 5.04089H5.62887C2.53299 5.04089 0 7.57388 0 10.6698V51.01C0 54.1059 2.53299 56.6389 5.62887 56.6389H46.9073C50.0031 56.6389 52.5361 54.1059 52.5361 51.01V10.6698C52.5361 7.57388 50.0031 5.04089 46.9073 5.04089ZM40.2464 37.2193C40.1526 44.912 33.867 51.1976 26.1742 51.1038C18.4815 51.01 12.1959 44.7244 12.2897 37.0316C12.3835 29.3388 18.6691 23.0533 26.3619 23.1471C34.0547 23.1471 40.2464 29.5265 40.2464 37.2193Z" fill="white"/>
</svg>
