<svg width="57" height="57" viewBox="0 0 57 57" fill="none" xmlns="http://www.w3.org/2000/svg">
<path fill-rule="evenodd" clip-rule="evenodd" d="M28.2576 19.6993C28.2576 18.7697 28.5948 18.2447 29.004 17.9036C29.4777 17.5087 30.2173 17.2367 31.0721 17.2367C31.9268 17.2367 32.6664 17.5088 33.1401 17.9036C33.5493 18.2447 33.8865 18.7698 33.8865 19.6993C33.8865 21.2537 35.1465 22.5137 36.7009 22.5137C38.2553 22.5137 39.5154 21.2537 39.5154 19.6993C39.5154 17.1108 38.4453 14.9973 36.7437 13.5794C35.1066 12.2153 33.0318 11.6078 31.0721 11.6078C29.1124 11.6078 27.0376 12.2153 25.4004 13.5794C23.6988 14.9973 22.6288 17.1108 22.6288 19.6993V25.68H19.8143C18.26 25.68 16.9999 26.94 16.9999 28.4944C16.9999 30.0489 18.26 31.3089 19.8143 31.3089H22.6288V36.8339C22.4436 37.2369 22.0839 37.5749 21.7656 37.871C20.9821 38.6 19.9383 39.2926 19.0699 39.7767C17.6903 40.5456 17.3597 42.0336 17.6252 43.1081C17.893 44.192 18.9038 45.3811 20.5227 45.3811H36.7009C38.2553 45.3811 39.5154 44.121 39.5154 42.5666C39.5154 41.0122 38.2553 39.7522 36.7009 39.7522H27.4482C27.8827 39.0024 28.2576 38.0433 28.2576 36.9377V31.3089H31.0721C32.6265 31.3089 33.8865 30.0489 33.8865 28.4944C33.8865 26.94 32.6265 25.68 31.0721 25.68H28.2576V19.6993ZM0.113281 28.4944C0.113281 12.9507 12.7139 0.350098 28.2576 0.350098C43.8012 0.350098 56.402 12.9507 56.402 28.4944C56.402 44.038 43.8012 56.6388 28.2576 56.6388C12.7139 56.6388 0.113281 44.038 0.113281 28.4944Z" fill="#F0EEF4"/>
</svg>
