<svg width="52" height="53" viewBox="0 0 52 53" fill="none" xmlns="http://www.w3.org/2000/svg">
<path d="M25.7051 0.922119C11.5824 0.922119 0.132812 12.3717 0.132812 26.4944C0.132812 40.6171 11.5824 52.0667 25.7051 52.0667C39.8278 52.0667 51.2773 40.6171 51.2773 26.4944C51.2773 12.3717 39.8278 0.922119 25.7051 0.922119ZM9.7352 44.2143C9.32905 43.8459 8.93558 43.4638 8.55546 43.0686L17.3233 36.6116V34.8761H14.0075L6.38864 40.4892C5.47957 39.238 4.69422 37.9014 4.04366 36.4983L6.24629 34.8761H3.36088C2.95001 33.7842 2.62064 32.6633 2.3755 31.5227H20.6759V49.824C19.5356 49.5785 18.415 49.2492 17.3233 48.8386V38.6216L9.7352 44.2143ZM30.7343 18.8559V3.16481C31.885 3.41286 33.0043 3.74274 34.0868 4.15019V14.3663L41.6741 8.77366C42.0816 9.14105 42.4728 9.52463 42.8538 9.91929L34.0868 16.3763V18.1118H37.401L45.0207 12.4995C45.9298 13.7501 46.7152 15.0861 47.3656 16.4888L45.1622 18.1118H48.0493C48.4601 19.2037 48.7895 20.3246 49.0347 21.4652H30.7343V18.8559ZM9.71304 8.79326L17.3216 14.3842L17.3233 4.15019C18.415 3.73959 19.5356 3.41023 20.6759 3.16481V21.4652H2.3755C2.62355 20.3144 2.95343 19.1952 3.36088 18.1118H6.24799L4.04452 16.4888C4.25677 16.0302 4.47839 15.5767 4.71877 15.1343L8.75749 18.1118L14.4209 18.1109L6.53099 12.2992C7.47386 11.0288 8.5397 9.85449 9.71304 8.79326ZM41.6971 44.1955L34.0885 38.6037L34.0868 48.8386C33.0043 49.2469 31.885 49.5759 30.7343 49.824V31.5227H49.0347C48.7891 32.6632 48.4598 33.7841 48.0493 34.8761H45.1605L47.3656 36.5C47.1553 36.9582 46.9304 37.4096 46.6914 37.8536L42.6527 34.8761L36.9876 34.877L44.8792 40.6887C43.9365 41.9595 42.8707 43.1342 41.6971 44.1955Z" fill="#F0EEF4"/>
</svg>
