<svg width="52" height="53" viewBox="0 0 52 53" fill="none" xmlns="http://www.w3.org/2000/svg">
<path d="M34.7655 2.65332C34.7655 3.68885 35.605 4.52832 36.6405 4.52832H45.4733L26.875 23.1266V17.6533C26.875 16.6178 26.0355 15.7783 25 15.7783C23.9645 15.7783 23.125 16.6178 23.125 17.6533V27.6533C23.125 28.6888 23.9645 29.5283 25 29.5283H35C36.0355 29.5283 36.875 28.6888 36.875 27.6533C36.875 26.6178 36.0355 25.7783 35 25.7783H29.5268L48.125 7.17997V16.0127C48.125 17.0482 48.9645 17.8877 50 17.8877C51.0355 17.8877 51.875 17.0482 51.875 16.0127V2.65332C51.875 1.6178 51.0355 0.77832 50 0.77832H36.6405C35.605 0.77832 34.7655 1.6178 34.7655 2.65332Z" fill="#F0EEF4"/>
<path d="M44.379 16.2292C44.4925 19.2275 46.953 21.6251 49.976 21.6376C50 23.4528 50 25.4501 50 27.6533C50 39.4383 50 45.3311 46.3387 48.9921C42.6777 52.6533 36.785 52.6533 25 52.6533C13.2149 52.6533 7.32232 52.6533 3.66117 48.9921C-2.98023e-07 45.3311 0 39.4383 0 27.6533C0 15.8682 -2.98023e-07 9.97565 3.66117 6.3145C7.32232 2.65332 13.2149 2.65332 25 2.65332C27.2033 2.65332 29.2005 2.65332 31.0157 2.67725C31.0282 5.70042 33.4258 8.16077 36.4243 8.27422L29.867 14.8314C28.893 13.1553 27.0783 12.0283 25 12.0283C21.8935 12.0283 19.375 14.5467 19.375 17.6533V27.6533C19.375 30.7598 21.8935 33.2783 25 33.2783H35C38.1065 33.2783 40.625 30.7598 40.625 27.6533C40.625 25.5751 39.498 23.7603 37.822 22.7863L44.379 16.2292Z" fill="#F0EEF4"/>
</svg>
