<svg width="67" height="49" viewBox="0 0 67 49" fill="none" xmlns="http://www.w3.org/2000/svg">
<path d="M66.2885 42.3546L60.3772 34.9208V3.65796C60.3772 2.14567 59.1508 0.919189 57.6385 0.919189H9.02164C7.50935 0.919189 6.28403 2.14567 6.28403 3.65796V34.9207L0.371548 42.3546C0.216973 42.5484 0.132812 42.7883 0.132812 43.0372V46.3275C0.132812 47.5349 1.11161 48.5124 2.31787 48.5124H64.3423C65.5485 48.5124 66.5273 47.5349 66.5273 46.3275V43.0372C66.5273 42.7883 66.4432 42.5484 66.2885 42.3546ZM10.1472 4.78356H56.5128V31.0566H10.1472V4.78356ZM39.5704 45.9139H27.0898V42.61H39.5704V45.9139Z" fill="#F0EEF4"/>
<path d="M37.9388 15.679C37.9388 14.41 37.4209 13.2496 36.5879 12.4189C35.7572 11.5872 34.5981 11.0682 33.3279 11.0691C32.0589 11.0681 30.8985 11.587 30.069 12.4189C29.2372 13.2497 28.7181 14.41 28.7181 15.679V17.301H27.2305V22.9264C27.2305 24.5565 28.5523 25.876 30.1822 25.876H36.4758C38.1046 25.876 39.4264 24.5565 39.4264 22.9264V17.301H37.9388V15.679ZM30.9558 15.679C30.9558 15.3483 31.0231 15.0388 31.1419 14.7552C31.3214 14.3314 31.6239 13.9659 32.0028 13.7102C32.3829 13.4535 32.8335 13.3067 33.3279 13.3056C33.6585 13.3056 33.968 13.3728 34.2517 13.4917C34.6765 13.6711 35.0409 13.9737 35.2966 14.3538C35.5521 14.7316 35.7002 15.1822 35.7012 15.6788V17.3008H30.9558V15.679Z" fill="#F0EEF4"/>
</svg>
