<svg width="66" height="53" viewBox="0 0 66 53" fill="none" xmlns="http://www.w3.org/2000/svg">
<path d="M39.2869 33.0234H26.2837C24.4887 33.0234 23.0329 34.4791 23.0329 36.2742V49.2773C23.0329 51.0724 24.4887 52.5281 26.2837 52.5281H39.2869C41.082 52.5281 42.5377 51.0724 42.5377 49.2773V36.2742C42.5377 34.4791 41.082 33.0234 39.2869 33.0234ZM19.7821 3.76618C19.7821 1.97113 18.3264 0.515381 16.5313 0.515381H3.52814C1.73309 0.515381 0.277344 1.97113 0.277344 3.76618V16.7694C0.277344 18.5644 1.73309 20.0202 3.52814 20.0202H13.2521L20.6842 33.0274C21.8118 31.0912 23.8863 29.7726 26.2837 29.7726H26.3122L19.7821 18.345V13.5186H42.5377V7.01698H19.7821V3.76618ZM62.0425 0.515381H49.0393C47.2443 0.515381 45.7885 1.97113 45.7885 3.76618V16.7694C45.7885 18.5644 47.2443 20.0202 49.0393 20.0202H62.0425C63.8375 20.0202 65.2933 18.5644 65.2933 16.7694V3.76618C65.2933 1.97113 63.8375 0.515381 62.0425 0.515381Z" fill="url(#paint0_linear_451_280)"/>
<defs>
<linearGradient id="paint0_linear_451_280" x1="65.2933" y1="0.515381" x2="-6.2522" y2="15.7829" gradientUnits="userSpaceOnUse">
<stop offset="1" stop-color="#D300E5"/>
</linearGradient>
</defs>
</svg>
