<svg width="53" height="53" viewBox="0 0 53 53" fill="none" xmlns="http://www.w3.org/2000/svg">
<path d="M39.011 26.5219C46.1925 26.5219 52.0143 20.7001 52.0143 13.5186C52.0143 6.33714 46.1925 0.515381 39.011 0.515381C31.8296 0.515381 26.0078 6.33714 26.0078 13.5186C26.0078 15.5987 26.4962 17.5648 27.3646 19.3083C27.5955 19.7716 27.6722 20.3012 27.5386 20.8012L26.7641 23.6957C26.4278 24.9524 27.5773 26.1018 28.8339 25.7656L31.7285 24.9911C32.2286 24.8574 32.7581 24.9342 33.2215 25.1651C34.965 26.0335 36.9311 26.5219 39.011 26.5219Z" fill="url(#paint0_linear_451_297)"/>
<path d="M15.7016 14.3409L17.3895 17.3652C18.9127 20.0946 18.3012 23.6749 15.9022 26.074C15.9022 26.074 12.9925 28.9841 18.2683 34.2601C23.5424 39.5342 26.4543 36.6261 26.4543 36.6261C28.8534 34.227 32.4337 33.6156 35.1631 35.1388L38.1874 36.8267C42.3089 39.1267 42.7955 44.9063 39.173 48.529C36.9963 50.7058 34.3296 52.3996 31.3818 52.5112C26.4195 52.6994 17.992 51.4436 9.5384 42.9899C1.08481 34.5363 -0.171091 26.1089 0.0170396 21.1465C0.128789 18.1987 1.82254 15.5321 3.99931 13.3554C7.62188 9.7328 13.4016 10.2195 15.7016 14.3409Z" fill="url(#paint1_linear_451_297)"/>
<defs>
<linearGradient id="paint0_linear_451_297" x1="52.0143" y1="0.515381" x2="22.9401" y2="5.47882" gradientUnits="userSpaceOnUse">
<stop offset="0.365385" stop-color="#7600C4"/>
</linearGradient>
<linearGradient id="paint1_linear_451_297" x1="41.6104" y1="10.918" x2="-4.90831" y2="18.8595" gradientUnits="userSpaceOnUse">
<stop offset="0.365385" stop-color="#7600C4"/>
</linearGradient>
</defs>
</svg>
