<svg width="53" height="53" viewBox="0 0 53 53" fill="none" xmlns="http://www.w3.org/2000/svg">
<path fill-rule="evenodd" clip-rule="evenodd" d="M19.6969 3.93321C22.9518 -0.623897 29.7248 -0.623897 32.98 3.93321L33.4982 4.65872C34.0709 5.46075 35.0329 5.8902 36.0124 5.78137L38.3221 5.52471C43.5207 4.94713 47.9131 9.33956 47.3355 14.5379L47.0789 16.8478C46.9701 17.8273 47.3994 18.7892 48.2015 19.362L48.927 19.8802C53.484 23.1352 53.484 29.9081 48.927 33.1633L48.2015 33.6816C47.3994 34.2543 46.9701 35.2163 47.0789 36.1957L47.3355 38.5055C47.9131 43.704 43.5207 48.0964 38.3221 47.5188L36.0124 47.2623C35.0329 47.1535 34.0709 47.5828 33.4982 48.3848L32.98 49.1104C29.7248 53.6674 22.9521 53.6674 19.6969 49.1104L19.1787 48.3848C18.6058 47.5828 17.644 47.1535 16.6644 47.2623L14.3546 47.5188C9.15621 48.0964 4.76378 43.704 5.34136 38.5055L5.59802 36.1957C5.70685 35.2163 5.2774 34.2543 4.47537 33.6816L3.74986 33.1633C-0.807247 29.9081 -0.807247 23.1355 3.74986 19.8802L4.47537 19.362C5.2774 18.7892 5.70685 17.8273 5.59802 16.8477L5.34136 14.5379C4.76378 9.33956 9.15621 4.94713 14.3546 5.52471L16.6644 5.78137C17.644 5.8902 18.6058 5.46075 19.1787 4.65872L19.6969 3.93321ZM36.424 19.1568C37.4864 20.2193 37.4864 21.9419 36.424 23.0043L26.0343 33.394C24.6998 34.7288 22.5359 34.7288 21.2014 33.394L16.2529 28.4455C15.1904 27.3831 15.1904 25.6605 16.2529 24.5981C17.3154 23.5357 19.0379 23.5357 20.1004 24.5981L23.6179 28.1155L32.5765 19.1568C33.6389 18.0944 35.3616 18.0944 36.424 19.1568Z" fill="#4CFFE7"/>
</svg>
