<svg width="56" height="52" viewBox="0 0 56 52" fill="none" xmlns="http://www.w3.org/2000/svg">
<path d="M54.0794 30.3059H44.76C44.76 29.6401 44.76 28.9751 44.76 28.3087C44.76 27.4765 44.76 26.81 44.5913 26.1451C50.2507 24.9808 54.7451 18.8221 54.7451 11.3319C54.7451 10.3333 54.0794 9.66911 53.0808 9.66911C52.0822 9.66911 51.4172 10.3348 51.4172 11.3319C51.4172 17.3235 48.0893 22.1515 43.5964 22.8164C42.7635 21.6522 41.7649 21.3178 40.4335 21.3178C40.1006 16.492 37.937 12.497 34.7748 10.0012C36.9384 8.16974 38.4378 5.34189 38.4378 2.17969C38.4378 1.17962 37.7721 0.515381 36.7742 0.515381C35.7749 0.515381 35.1099 1.18111 35.1099 2.17969C35.1099 4.67542 33.7785 7.0062 31.6149 8.16974C30.4513 7.67044 29.2848 7.50401 28.1198 7.50401C26.9563 7.50401 25.7898 7.67044 24.6247 8.16974C22.6276 7.0062 21.1297 4.67542 21.1297 2.17969C21.1297 1.17962 20.4639 0.515381 19.4668 0.515381C18.4668 0.515381 17.8025 1.18111 17.8025 2.17969C17.8025 5.34189 19.134 8.16974 21.464 10.0012C18.469 12.497 16.3061 16.6577 15.8054 21.3178C14.4739 21.3178 13.3104 21.8179 12.6432 22.8164C8.14952 22.1507 4.82237 17.3235 4.82237 11.3319C4.82237 10.3333 4.15665 9.66911 3.15806 9.66911C2.15947 9.66911 1.49375 10.3348 1.49375 11.3319C1.49375 18.6549 5.82096 24.8144 11.6461 26.1458C11.6461 26.8115 11.4796 27.4773 11.4796 28.3094C11.4796 28.9751 11.4796 29.6409 11.4796 30.3066H2.1565C1.15643 30.3066 0.492188 30.9723 0.492188 31.9709C0.492188 32.9695 1.15791 33.6352 2.1565 33.6352H11.976C12.3088 34.9667 12.6417 36.4653 13.1395 37.6296C6.98227 38.4617 2.1565 43.6204 2.1565 50.1119C2.1565 51.1105 2.82223 51.7762 3.81933 51.7762C4.8194 51.7762 5.48364 51.1105 5.48364 50.1119C5.48364 44.9533 9.64591 40.7918 14.8038 40.7918C17.7996 45.7847 22.6261 49.1133 28.1183 49.1133C33.612 49.1133 38.2706 45.7847 41.4321 40.7918C46.5907 40.7918 50.753 44.9533 50.753 50.1119C50.753 51.1105 51.4187 51.7762 52.4173 51.7762C53.4159 51.7762 54.0801 51.1105 54.0801 50.1119C54.0801 43.7875 49.2536 38.4617 43.0964 37.6296C43.5957 36.2981 44.095 34.9667 44.2614 33.6352H54.0801C55.0802 33.6352 55.7437 32.9695 55.7437 31.9709C55.7437 30.9723 54.9123 30.3059 54.0794 30.3059ZM39.4342 33.1337H35.9384C35.4391 36.628 32.7762 39.2909 29.2818 39.7917V43.286C29.2818 43.9517 28.7825 44.451 28.1168 44.451C27.4511 44.451 26.9533 43.9503 26.9533 43.286V39.7917C23.4582 39.2909 20.7953 36.628 20.296 33.1337H16.8002C16.1345 33.1337 15.6352 32.6344 15.6352 31.9694C15.6352 31.3044 16.1345 30.8051 16.8002 30.8051H20.2953C20.7946 27.3108 23.4575 24.6472 26.9525 24.1486V20.6528C26.9525 19.9871 27.4518 19.4893 28.1161 19.4893C28.7818 19.4893 29.2811 19.9886 29.2811 20.6528V24.1486C32.7754 24.6479 35.4383 27.3108 35.9376 30.8051H39.4334C40.0991 30.8051 40.5962 31.3044 40.5962 31.9694C40.5962 32.6344 40.1006 33.1337 39.4342 33.1337Z" fill="url(#paint0_linear_451_285)"/>
<path d="M22.1523 31.0272H27.0321V26.1466C24.5027 26.6904 22.5146 28.6761 22.1523 31.0272Z" fill="url(#paint1_linear_451_285)"/>
<path d="M29.3828 38.2573C31.7323 37.7151 33.7196 35.9078 34.2626 33.3767H29.3828V38.2573Z" fill="url(#paint2_linear_451_285)"/>
<path d="M29.3828 26.1458V31.0264H34.2626C33.7196 28.6761 31.7323 26.6904 29.3828 26.1458Z" fill="url(#paint3_linear_451_285)"/>
<path d="M26.854 38.2573V33.3767H21.9727C22.5165 35.9054 24.5045 37.8942 26.854 38.2573Z" fill="url(#paint4_linear_451_285)"/>
<defs>
<linearGradient id="paint0_linear_451_285" x1="55.7437" y1="0.515381" x2="-5.74356" y2="11.8295" gradientUnits="userSpaceOnUse">
<stop offset="0.365385" stop-color="#7600C4"/>
</linearGradient>
<linearGradient id="paint1_linear_451_285" x1="27.0321" y1="26.1466" x2="21.5767" y2="27.0778" gradientUnits="userSpaceOnUse">
<stop offset="0.365385" stop-color="#7600C4"/>
</linearGradient>
<linearGradient id="paint2_linear_451_285" x1="34.2626" y1="33.3767" x2="28.8071" y2="34.3079" gradientUnits="userSpaceOnUse">
<stop offset="0.365385" stop-color="#7600C4"/>
</linearGradient>
<linearGradient id="paint3_linear_451_285" x1="34.2626" y1="26.1458" x2="28.8071" y2="27.077" gradientUnits="userSpaceOnUse">
<stop offset="0.365385" stop-color="#7600C4"/>
</linearGradient>
<linearGradient id="paint4_linear_451_285" x1="26.854" y1="33.3767" x2="21.3969" y2="34.3085" gradientUnits="userSpaceOnUse">
<stop offset="0.365385" stop-color="#7600C4"/>
</linearGradient>
</defs>
</svg>
